<svg viewBox="0 0 300.00024 27.0205" version="1.1" height="9.53223mm" width="105.83342mm" xmlns="http://www.w3.org/2000/svg" id="Layer_1">
  
  <path fill="#fff" d="M300.00024.19031h-4.5675l-7.45642,12.97547-7.61249-12.97547h-4.52942l9.9343,17.92359v8.71629h4.44949v-8.86854L300.00024.19031ZM258.51602,16.82358l5.02423-11.84121,5.02042,11.84121h-10.04468.00003ZM272.8237,26.83019h4.79587L265.97626.19031h-4.60556l-11.76128,26.63988h4.68166l2.55017-6.01386h13.43225l2.55017,6.01386h.00003ZM235.29417,22.79938h-6.54674V4.22112h6.35643c5.25641,0,9.3291,3.88237,9.3291,9.32529,0,5.40867-3.9585,9.25297-9.13879,9.25297M235.17998.19031h-10.9201v26.63988h10.80592c8.07304,0,13.89278-5.62943,13.89278-13.32184,0-7.72667-5.78168-13.31804-13.77859-13.31804M194.11446.19031v26.63988h4.48756V7.72667l14.20108,19.10352h4.41142V.19031h-4.41142v19.14158L198.52589.19031h-4.41144ZM175.2355,4.10693c5.21455,0,9.47752,4.11074,9.47752,9.40141,0,5.29448-4.26299,9.48134-9.47752,9.48134-5.21835,0-9.59554-4.18686-9.59554-9.48134,0-5.29068,4.33911-9.40141,9.59554-9.40141M175.19743.07612c-7.95885,0-14.12115,5.78168-14.12115,13.43222,0,7.61629,6.16231,13.51215,14.12115,13.51215,7.95503,0,14.11734-5.89587,14.11734-13.51215,0-7.61248-6.16231-13.43222-14.11734-13.43222M128.07617.19031v26.63988h4.22112V6.92355l8.40797,17.12808h2.93082l8.40417-17.12808.03807,19.90664h4.15642V.19031h-5.29449l-8.75055,17.69521L133.40111.19031h-5.32494ZM113.11385.19031h-4.56749l-7.45642,12.97547L93.48126.19031h-4.52942l9.93428,17.92359v8.71629h4.44569v-8.86854L113.11385.19031ZM67.2182.19031v4.03081h8.41179v22.60907h4.48375V4.22112h8.44985V.19031s-21.3454,0-21.34539,0ZM62.91334,6.69518l1.86506-3.95849C62.30436,1.10381,58.9206,0,55.45312,0,49.66763,0,45.75101,2.85087,45.75101,7.41836c0,9.48134,14.38759,6.16611,14.38759,12.10765,0,2.05537-1.86886,3.2353-4.98998,3.2353-2.85468,0-6.2803-1.37025-9.01698-3.88237l-1.94118,3.88237c2.73669,2.50831,6.69137,4.22112,10.88204,4.22112,5.86542,0,10.04467-2.927,10.04467-7.6848.03806-9.59553-14.34952-6.47441-14.34952-12.29796,0-1.78893,1.71661-2.77856,4.34292-2.77856,2.01731,0,4.91386.72319,7.80279,2.47406M35.20772,26.83019h4.48756V.19031h-4.48756v26.63988ZM0,.19031v26.63988h4.22112V6.92355l8.40799,17.12808h2.927L23.96409,6.92355l.03806,19.90664h4.15641V.19031h-5.29829l-8.75055,17.69521L5.32493.19031H0Z"></path>
</svg>