<?xml version="1.0" encoding="utf-8"?>
<!-- Generator: Adobe Illustrator 29.6.0, SVG Export Plug-In . SVG Version: 9.03 Build 0)  -->
<svg version="1.0" id="Layer_1" xmlns="http://www.w3.org/2000/svg" xmlns:xlink="http://www.w3.org/1999/xlink" x="0px" y="0px"
	 width="199.80002px" height="28.50537px" viewBox="0 0 199.80002 28.50537" enable-background="new 0 0 199.80002 28.50537"
	 xml:space="preserve">
<path id="Path_710" fill="#FFFFFF" d="M16.6,13.4c1.2-1.4,1.8-3.3,1.7-5.1c0.1-1.6-0.5-3.2-1.7-4.3c-1.5-1.1-3.4-1.6-5.2-1.4H8.3
	C7.5,2.5,6.6,2.9,6,3.5c-0.5,1-0.7,2-0.6,3.1v7.5c1.9,0.8,4,1.3,6.1,1.4C13.4,15.6,15.3,14.9,16.6,13.4 M0,27.7
	c0.6-0.1,1.3-0.4,1.8-0.8c0.4-0.4,0.7-0.8,0.8-1.4c0.1-0.8,0.2-1.6,0.2-2.4V6.6c0-0.8,0-1.6-0.2-2.4c-0.1-0.5-0.4-1-0.8-1.4
	C1.3,2.4,0.6,2.2,0,2V1.9h11.5c6.4,0,9.6,2.3,9.6,6.8c0,1.3-0.4,2.6-1.1,3.7c-0.7,1.2-1.8,2.2-3.1,2.9c-1.4,0.8-3.1,1.1-4.7,1.1
	c-2.4,0-4.7-0.6-6.9-1.7v8.5c0,0.8,0,1.6,0.2,2.4c0.1,0.5,0.4,1,0.8,1.4c0.5,0.4,1.1,0.7,1.8,0.8V28H0V27.7z"/>
<path id="Path_711" fill="#FFFFFF" d="M38.4,17.1c0.1-2-0.6-4-1.8-5.5c-1.1-1.3-2.8-2-4.4-1.9c-1.1,0-2.2,0.3-3.2,0.8
	c-1.1,0.6-1.9,1.5-2.5,2.5c-0.7,1.3-1,2.7-1,4.1H38.4z M27.7,27.2c-1.5-0.8-2.7-1.9-3.6-3.3c-0.9-1.6-1.4-3.5-1.4-5.3
	c-0.1-1.8,0.4-3.6,1.4-5.2c0.9-1.4,2.1-2.5,3.6-3.2c1.4-0.7,3-1.1,4.6-1.1c1.5,0,3,0.3,4.3,1s2.4,1.8,3.1,3.1
	c0.8,1.5,1.2,3.2,1.1,4.9H25.3v0.5c0.1,1.7,0.6,3.3,1.4,4.8c0.7,1.3,1.7,2.3,2.9,3.1c1.1,0.7,2.3,1,3.6,1.1c1.3,0,2.5-0.3,3.6-0.8
	s2.1-1.4,2.9-2.3l0.4,0.3c-1.8,2.5-4.7,3.8-7.8,3.7C30.8,28.3,29.2,27.9,27.7,27.2"/>
<path id="Path_712" fill="#FFFFFF" d="M43.5,27.7c0.6-0.1,1.2-0.4,1.7-0.8c0.3-0.4,0.5-0.8,0.6-1.3c0.1-0.8,0.1-1.7,0.1-2.5v-9.9
	c0.1-0.7-0.1-1.4-0.5-1.9c-0.6-0.4-1.3-0.6-2-0.5v-0.4l4.9-1.5v3.3c1-1,2.2-1.8,3.4-2.4c1.1-0.6,2.4-0.9,3.6-0.9
	c1.2-0.1,2.4,0.2,3.4,0.9c0.8,0.7,1.3,1.6,1.5,2.7c1-1,2.2-1.9,3.5-2.6C64.9,9.3,66.1,9,67.5,9c1.2-0.1,2.3,0.2,3.3,0.8
	c0.8,0.6,1.3,1.4,1.5,2.3c0.3,1.3,0.4,2.6,0.4,3.9v7.3c0,0.8,0,1.7,0.1,2.5c0.1,0.5,0.3,0.9,0.6,1.3c0.5,0.4,1.1,0.7,1.7,0.8v0.2H68
	v-0.2c0.6-0.1,1.2-0.4,1.7-0.8c0.3-0.4,0.5-0.8,0.6-1.3c0.1-0.8,0.1-1.7,0.1-2.5V16c0.1-1.6-0.1-3.2-0.7-4.7c-0.5-1-1.5-1.5-2.6-1.4
	c-1.2,0.1-2.4,0.4-3.4,1.1c-1.2,0.7-2.3,1.6-3.1,2.6v-0.1c0.1,0.8,0.1,1.6,0.1,2.4v7.3c0,0.8,0,1.7,0.1,2.5c0.1,0.5,0.3,0.9,0.6,1.3
	c0.5,0.4,1.1,0.7,1.7,0.8V28h-7.4v-0.2c0.6-0.1,1.2-0.4,1.7-0.8c0.3-0.4,0.6-0.8,0.6-1.3c0.1-0.8,0.1-1.7,0.1-2.5V16
	c0.1-1.6-0.1-3.2-0.7-4.7c-0.5-1-1.5-1.5-2.6-1.4c-1.2,0.1-2.3,0.4-3.3,1c-1.2,0.6-2.2,1.5-3.1,2.6v9.6c0,0.8,0,1.7,0.1,2.5
	c0.1,0.5,0.3,0.9,0.6,1.3c0.5,0.4,1.1,0.7,1.7,0.8v0.2h-7.4v-0.2C43.39999,27.7,43.5,27.7,43.5,27.7z"/>
<path id="Path_713" fill="#FFFFFF" d="M99.5,27.1c3.7,0.1,6.5-1,8.6-3.2s3.1-5.4,3-9.6c0-3.9-1-6.8-3.1-8.7s-4.9-2.9-8.5-2.9h-1.4
	c-0.9-0.1-1.7,0.2-2.3,0.9c-0.5,1-0.7,2-0.6,3.1v16.5c-0.1,1,0.1,2,0.5,3c0.4,0.6,1.2,1,2,1L99.5,27.1z M89.8,27.7
	c0.6-0.1,1.3-0.4,1.8-0.8c0.4-0.4,0.7-0.8,0.8-1.4c0.1-0.8,0.2-1.6,0.2-2.4V6.6c0-0.8,0-1.6-0.2-2.4c-0.1-0.5-0.4-1-0.8-1.4
	C91,2.4,90.4,2.2,89.8,2V1.9h9.7c2.6-0.1,5.2,0.4,7.6,1.5c2.1,0.9,3.8,2.4,5,4.3c1.2,2,1.8,4.3,1.8,6.7c0.1,2.6-0.5,5.1-1.7,7.3
	c-1.1,2-2.9,3.7-5,4.7c-2.4,1.1-5.1,1.7-7.7,1.6h-9.7L89.8,27.7z"/>
<path id="Path_714" fill="#FFFFFF" d="M133.39999,17.1c0.10001-2-0.60001-4-1.8-5.5c-1.10001-1.3-2.8-2-4.4-1.9
	c-1.1,0-2.2,0.3-3.2,0.8c-1.1,0.6-1.9,1.5-2.5,2.5c-0.7,1.3-1,2.7-1,4.1H133.39999z M122.8,27.2c-1.5-0.8-2.7-1.9-3.6-3.3
	c-0.9-1.6-1.4-3.5-1.4-5.3c-0.1-1.8,0.4-3.6,1.4-5.2c0.9-1.4,2.1-2.5,3.6-3.2c1.4-0.7,3-1.1,4.6-1.1c1.49999,0,2.99999,0.3,4.3,1
	s2.39999,1.8,3.10001,3.1c0.8,1.5,1.2,3.2,1.10001,4.9h-15.6v0.5c0.1,1.7,0.6,3.3,1.4,4.8c0.7,1.3,1.7,2.3,2.9,3.1
	c1.1,0.7,2.3,1,3.6,1.1c1.3,0,2.5-0.3,3.60001-0.8s2.10001-1.3,2.89999-2.3l0.39999,0.3c-1.8,2.5-4.7,3.8-7.8,3.7
	C125.9,28.3,124.2,27.9,122.8,27.2"/>
<path id="Path_715" fill="#FFFFFF" d="M138.3,27.7c0.60001-0.1,1.2-0.4,1.7-0.8c0.3-0.4,0.5-0.8,0.60001-1.3
	c0.10001-0.8,0.10001-1.7,0.10001-2.5V4.3c0.10001-0.7-0.10001-1.4-0.5-1.9c-0.60001-0.4-1.3-0.6-2-0.5V1.5l4.89999-1.5v23.1
	c0,0.8,0,1.7,0.10001,2.5c0.10001,0.5,0.3,0.9,0.60001,1.3c0.5,0.4,1.10001,0.7,1.7,0.8v0.2h-7.39999v-0.2
	C138.10002,27.7,138.3,27.7,138.3,27.7z"/>
<path id="Path_716" fill="#FFFFFF" d="M151.10001,5.2C150.70001,4.8,150.5,4.3,150.5,3.8s0.2-1,0.60001-1.4c0.8-0.8,2-0.8,2.8,0
	c0.39999,0.4,0.60001,0.9,0.60001,1.4s-0.2,1-0.60001,1.4C153.2,6,151.89999,6,151.10001,5.2
	C151.10001,5.3,151.10001,5.2,151.10001,5.2 M149,27.7c0.60001-0.1,1.2-0.4,1.7-0.8C151,26.5,151.3,26.1,151.3,25.6
	c0.10001-0.8,0.10001-1.7,0.10001-2.5v-9.9c0.10001-0.7-0.10001-1.4-0.5-1.9c-0.60001-0.4-1.3-0.6-2-0.5v-0.4L153.8,8.9v14.2
	c0,0.8,0,1.7,0.10001,2.5c0.10001,0.5,0.3,0.9,0.60001,1.3c0.5,0.4,1.10001,0.7,1.7,0.8v0.2H149V27.7z"/>
<path id="Path_717" fill="#FFFFFF" d="M168.89999,26.2c1.2-0.7,2.2-1.7,3-2.8v-7c-0.60001,0.3-1.2,0.6-1.8,0.9
	c-0.60001,0.2-1.39999,0.5-2.5,0.8c-1,0.3-2.10001,0.7-3,1.1c-0.7,0.3-1.3,0.8-1.8,1.4c-0.5,0.7-0.8,1.6-0.89999,2.4
	c-0.10001,1.1,0.2,2.2,0.89999,3s1.8,1.2,2.8,1.2C166.7,27.1,167.89999,26.8,168.89999,26.2 M160.60001,26.9
	c-1-0.9-1.60001-2.2-1.5-3.6c0-1.1,0.3-2.1,1-2.9s1.60001-1.3,2.5-1.7c1.3-0.5,2.7-1,4-1.4c1.2-0.3,2.2-0.6,3-0.9s1.5-0.6,2.2-1
	c0.10001-1.5-0.3-3-1-4.3c-0.8-1-2.2-1.6-3.5-1.4c-0.8,0-1.60001,0.1-2.39999,0.4c-0.5,0.2-0.89999,0.6-1.10001,1
	c-0.2,0.5-0.39999,1-0.60001,1.6c-0.10001,0.5-0.3,0.9-0.60001,1.4c-0.2,0.3-0.60001,0.5-1,0.4c-0.3,0-0.7-0.1-0.89999-0.4
	c-0.2-0.2-0.3-0.5-0.39999-0.8c0-0.8,0.39999-1.5,1-2.1c0.7-0.8,1.60001-1.3,2.60001-1.7c1.10001-0.5,2.3-0.7,3.5-0.7
	c1.8-0.1,3.7,0.5,5.10001,1.7c1.3,1.3,1.89999,3.1,1.8,4.9v8.5c0,0.9,0.10001,1.7,0.3,2.5c0.2,0.5,0.7,0.9,1.2,0.8
	c0.7,0,1.2-0.5,1.5-1.6l0.3,0.1c-0.10001,0.7-0.5,1.3-1,1.7c-0.60001,0.4-1.3,0.6-2,0.6c-0.8,0.1-1.60001-0.3-2.10001-0.9
	c-0.5-0.9-0.7-1.9-0.7-2.9c-0.89999,1.2-2,2.2-3.39999,2.8c-1.2,0.6-2.5,1-3.89999,1C163.2,28.3,161.8,27.8,160.60001,26.9"/>
<path id="Path_718" fill="#FFFFFF" d="M180,27.7c0.60001-0.1,1.2-0.4,1.7-0.8C182,26.5,182.3,26.1,182.3,25.6
	c0.10001-0.8,0.10001-1.7,0.10001-2.5v-9.9c0.10001-0.7-0.10001-1.4-0.5-1.9c-0.60001-0.4-1.3-0.6-2-0.5v-0.4L184.8,8.9v3.3
	c1.10001-1,2.3-1.8,3.60001-2.4c1.2-0.6,2.5-0.9,3.8-0.9c1.2-0.1,2.3,0.2,3.3,0.8c0.8,0.5,1.3,1.4,1.5,2.3
	c0.3,1.3,0.39999,2.6,0.39999,3.9v7.3c0,0.8,0,1.7,0.10001,2.5c0.10001,0.5,0.3,0.9,0.60001,1.3c0.5,0.4,1.10001,0.7,1.7,0.8V28
	h-7.39999v-0.2c0.60001-0.1,1.2-0.4,1.7-0.8c0.3-0.4,0.60001-0.8,0.60001-1.3c0.10001-0.8,0.10001-1.7,0.10001-2.5V16
	c0.10001-1.6-0.2-3.2-0.8-4.6c-0.5-1-1.60001-1.6-2.7-1.5c-1.2,0.1-2.39999,0.4-3.39999,1c-1.2,0.6-2.3,1.5-3.10001,2.6v9.6
	c0,0.8,0,1.7,0.10001,2.5c0.10001,0.5,0.3,0.9,0.60001,1.3c0.5,0.4,1.10001,0.7,1.7,0.8v0.2H180V27.7z"/>
</svg>
