<?xml version="1.0" encoding="utf-8"?>
<!-- Generator: Adobe Illustrator 26.2.1, SVG Export Plug-In . SVG Version: 6.00 Build 0)  -->
<svg version="1.1" id="Réteg_1" xmlns="http://www.w3.org/2000/svg" xmlns:xlink="http://www.w3.org/1999/xlink" x="0px" y="0px"
	 viewBox="0 0 2409.45 598.11" style="enable-background:new 0 0 2409.45 598.11;" xml:space="preserve">
<style type="text/css">
	.st0{fill:#FFFFFF;}
	.st1{fill:#CEE12F;}
	.st2{fill:#E843E5;}
	.st3{fill:#2D2741;}
	.st4{fill:#1D1D1B;}
</style>
<g>
	<g>
		<path class="st0" d="M46.72,591.74c-12.05,0-20.39-0.92-25.03-2.78c-4.63-3.09-8.11-8.65-10.42-16.68
			c-2.32-8.04-3.48-17-3.48-26.88c0-14.53,2.78-28.27,8.35-41.25c1.85-3.71,4.09-6.95,6.72-9.73c2.62-2.77,4.56-4.17,5.79-4.17
			c31.51-0.62,53.6-5.64,66.28-15.07c12.66-9.42,19-22.17,19-38.23c0-14.83-3.94-32.14-11.81-51.92
			c-7.89-19.76-17.23-40.94-28.04-63.49c-8.97-18.85-17.69-38.31-26.19-58.4c-8.5-20.08-15.53-40.24-21.09-60.49
			c-5.56-20.23-8.34-40.24-8.34-60.02c0-17.3,2.93-34.22,8.8-50.75c5.87-16.53,15.6-32.06,29.2-46.58
			c12.67-13.28,27.12-23.09,43.34-29.43c16.22-6.33,32.68-9.5,49.36-9.5c31.82,0,60.25,10.36,85.28,31.05
			c3.08,3.1,4.63,7.12,4.63,12.06c0,10.19-4.56,22.01-13.68,35.45c-9.11,13.44-18.31,22.79-27.57,28.04
			c-3.71,1.86-7.34,3.41-10.89,4.63c-3.55,1.25-5.79,1.86-6.72,1.86c-0.31,0-0.92-0.3-1.85-0.92c-2.78-1.86-7.03-4.1-12.75-6.72
			c-5.72-2.62-12.13-3.94-19.23-3.94c-8.65,0-15.14,3.33-19.47,9.97c-4.33,6.65-6.49,14.3-6.49,22.94
			c0,14.22,3.86,31.83,11.59,52.84c7.72,21.02,16.83,43.88,27.35,68.59c9.27,21.32,18.23,43.19,26.88,65.58
			c8.65,22.41,15.91,44.81,21.79,67.21c5.87,22.41,8.8,43.8,8.8,64.19c0,20.09-3.71,38.7-11.12,55.85
			c-7.41,17.15-20.01,31.9-37.77,44.27c-17.78,12.36-41.8,21.78-72.07,28.27c-5.87,1.22-13.44,2.24-22.71,3.01
			C63.87,591.35,55.06,591.74,46.72,591.74"/>
		<path class="st0" d="M541.59,524.8c-13.16,0-26.72-2.14-40.7-6.41c-13.99-4.28-21.63-10.36-22.95-18.26
			c0-2.3,0.33-8.06,0.99-17.27c1.3-13.15,2.63-30.92,3.95-53.29c1.3-22.36,1.97-46.21,1.97-71.54c0-30.92-1.9-60.85-5.68-89.81
			c-3.79-28.95-11.1-51.31-21.96-67.1c-1.32-1.64-3.12-2.47-5.42-2.47c-6.26,0-14.97,5.18-26.15,15.54
			c-11.19,10.36-21.47,21.06-30.84,32.07c-9.38,11.03-15.38,18.18-18.01,21.46l-0.5,0.99l0.98,171.21v26.4
			c0,6.75-0.17,12.01-0.49,15.79c-0.34,3.79-0.67,6.66-0.99,8.63c-0.33,1.97-0.82,3.29-1.48,3.95c-0.66,0.66-1.48,1.15-2.47,1.48
			c-0.33,0.33-0.82,0.66-1.48,0.98c-5.6,4.28-12.67,7.4-21.22,9.38c-8.56,1.97-17.44,2.96-26.64,2.96
			c-12.17,0-23.36-1.72-33.55-5.18c-10.21-3.45-16.29-8.46-18.26-15.05c-0.33-1.97-0.66-16.78-0.99-44.41
			c-0.33-27.63-0.66-61.43-0.99-101.39c-0.33-39.97-0.57-79.93-0.74-119.91c-0.17-39.97-0.25-72.29-0.25-96.96l0.5-37.5
			c2.96-6.24,9.69-11.01,20.23-14.3c10.52-3.29,22.04-4.94,34.54-4.94c9.21,0,18.01,0.99,26.4,2.96c8.39,1.98,15.05,5.1,19.98,9.38
			c1.64,1.65,2.96,3.12,3.95,4.44c0.99,1.32,1.56,3.21,1.73,5.68c0.16,2.47,0.25,6.17,0.25,11.1v9.38c0,2.63,0.16,3.95,0.49,3.95
			s1.15-0.49,2.47-1.48c3.29-2.3,8.64-5.5,16.04-9.62c7.4-4.11,16.44-7.89,27.14-11.35c10.69-3.45,22.29-5.18,34.79-5.18
			c13.82,0,27.05,2.71,39.72,8.14c12.66,5.43,25.73,14.89,39.23,28.37c4.28-3.62,8.55-7.23,12.83-10.85
			c12.83-11.51,26.4-22.62,40.71-33.31c14.31-10.68,29.77-19.65,46.38-26.89c16.6-7.23,34.78-10.85,54.52-10.85
			c29.27,0,53.45,7.4,72.53,22.2c19.07,14.81,34.21,34.87,45.4,60.2c11.18,25.33,19,53.95,23.43,85.85
			c4.44,31.91,6.66,64.81,6.66,98.68c0,29.94-1.23,59.54-3.7,88.81c-2.47,29.29-5.68,56.92-9.62,82.9
			c-0.34,2.96-0.67,5.76-0.99,8.39c-0.33,10.2-2.55,18.34-6.66,24.42c-4.11,6.08-15.38,9.13-33.8,9.13
			c-17.44-0.33-32.32-2.88-44.66-7.65c-12.33-4.78-20.15-11.1-23.44-18.99c5.26-41.78,9.29-78.46,12.09-110.03
			c2.79-31.58,4.19-63.32,4.19-95.24c0-22.03-1.16-43.99-3.46-65.87c-2.31-21.87-6.58-39.97-12.83-54.28
			c-6.25-14.31-15.13-21.46-26.64-21.46c-9.87,0-21.71,5.27-35.53,15.79c-13.82,10.53-26.73,21.96-38.74,34.29
			c-12.01,12.33-20.97,21.96-26.89,28.87c-2.31,2.3-3.79,3.78-4.44,4.44c6.57,53.29,9.87,100.99,9.87,143.09
			c0,38.82-1.4,70.31-4.19,94.49c-2.8,24.18-4.68,37.26-5.67,39.22c-2.64,4.93-7.74,8.47-15.3,10.61
			C559.68,523.72,551.13,524.8,541.59,524.8"/>
		<path class="st0" d="M983.69,244.53c5.59,0,15.29-0.32,29.11-0.99c13.81-0.65,28.94-1.48,45.39-2.47l0.49-22.2
			c0-21.38-1.56-40.62-4.68-57.73c-3.13-17.1-9.62-25.66-19.49-25.66c-6.25,0-14.15,4.77-23.69,14.31
			c-6.58,7.23-12.08,17.43-16.53,30.59c-4.44,13.16-7.9,26.07-10.36,38.74c-2.47,12.66-3.7,20.97-3.7,24.92L983.69,244.53z
			 M1076.95,564.27l-17.27-0.5c-47.37-5.59-85.21-21.38-113.49-47.37c-28.3-25.98-48.52-58.22-60.69-96.71
			c-12.17-38.48-18.26-78.29-18.26-119.41c0-47.69,6.42-92.34,19.24-133.96c12.84-41.61,28.95-72.61,48.36-93.01
			c13.82-13.82,29.43-24.25,46.88-31.33c17.43-7.07,35.2-10.61,53.29-10.61c21.71,0,42.35,5.43,61.92,16.29
			c19.57,10.85,35.44,27.31,47.61,49.34c8.21,16.12,14.06,34.3,17.51,54.52c3.46,20.24,5.18,40.55,5.18,60.94
			c0,33.55-3.2,63.32-9.62,89.31c-6.42,25.99-13.57,40.46-21.47,43.42c-1.32,0-9.7,0.42-25.16,1.23
			c-15.46,0.83-33.23,1.73-53.29,2.71c-20.07,0.99-45.73,2.31-76.97,3.95v0.5c0,1.32,0.49,4.44,1.47,9.38
			c0.99,4.93,2.14,9.95,3.46,15.05c1.31,5.1,2.3,8.96,2.96,11.59c12.16,31.91,27.79,51.4,46.87,58.47
			c19.07,7.08,35.85,9.95,50.33,8.63c8.22-0.32,13.98,0.33,17.27,1.98c5.92,4.6,10.53,12.75,13.82,24.42
			c3.29,11.68,4.93,23.61,4.93,35.77c0,9.87-1.15,18.91-3.45,27.14c-2.3,8.22-6.09,13.64-11.35,16.29
			c-1.65,0.65-5.43,1.15-11.35,1.47C1089.78,564.1,1083.53,564.27,1076.95,564.27"/>
		<path class="st0" d="M1336.97,555.39c-11.84,0-24.01-1.98-36.51-5.93c-26.32-9.21-46.05-23.6-59.21-43.17
			c-13.16-19.57-22.04-43.17-26.64-70.8c-2.96-18.09-5.02-42.6-6.17-73.52c-1.16-30.92-1.73-63.81-1.73-98.68
			c0-34.21,0.33-67.1,0.99-98.68c0.66-31.58,1.64-67.76,2.96-108.55c1.31-6.91,6.98-12.09,17.02-15.54
			c10.03-3.45,21.29-5.18,33.8-5.18c11.84,0,22.94,1.57,33.31,4.68c10.36,3.13,17.51,7.98,21.46,14.56
			c0.66,2.31,0.99,9.38,0.99,21.22c0,16.45-0.33,39.8-0.99,70.07c-1.65,45.39-2.47,91.78-2.47,139.14c0,41.12,1.31,77.39,3.95,108.8
			c2.63,31.42,7.56,49.09,14.81,53.04c1.3,0.34,2.47,0.49,3.45,0.49c1.64,0,2.96-0.32,3.95-0.98c0.98-0.65,1.97-1.48,2.96-2.47
			c1.31-1.64,3.45-3.12,6.42-4.44c3.28-0.99,6.58-1.48,9.87-1.48c13.49,0,27.55,7.24,42.18,21.71
			c14.64,14.48,22.95,28.95,24.92,43.42c0,6.26-3.95,13.49-11.84,21.72c-7.9,8.22-18.58,15.37-32.07,21.46
			C1368.88,552.34,1353.75,555.39,1336.97,555.39"/>
		<path class="st0" d="M1559.02,555.39c-11.84,0-24.01-1.98-36.51-5.93c-26.32-9.21-46.05-23.6-59.21-43.17
			c-13.16-19.57-22.04-43.17-26.64-70.8c-2.96-18.09-5.02-42.6-6.17-73.52c-1.16-30.92-1.73-63.81-1.73-98.68
			c0-34.21,0.33-67.1,0.99-98.68c0.66-31.58,1.64-67.76,2.96-108.55c1.31-6.91,6.98-12.09,17.02-15.54
			c10.03-3.45,21.29-5.18,33.8-5.18c11.84,0,22.94,1.57,33.31,4.68c10.36,3.13,17.51,7.98,21.46,14.56
			c0.66,2.31,0.99,9.38,0.99,21.22c0,16.45-0.33,39.8-0.99,70.07c-1.65,45.39-2.47,91.78-2.47,139.14c0,41.12,1.31,77.39,3.95,108.8
			c2.63,31.42,7.56,49.09,14.81,53.04c1.3,0.34,2.47,0.49,3.45,0.49c1.64,0,2.96-0.32,3.95-0.98c0.98-0.65,1.97-1.48,2.96-2.47
			c1.3-1.64,3.45-3.12,6.41-4.44c3.28-0.99,6.58-1.48,9.87-1.48c13.49,0,27.55,7.24,42.18,21.71
			c14.64,14.48,22.95,28.95,24.92,43.42c0,6.26-3.95,13.49-11.84,21.72c-7.9,8.22-18.58,15.37-32.07,21.46
			C1590.92,552.34,1575.79,555.39,1559.02,555.39"/>
	</g>
	<path class="st1" d="M1798.33,299.3c7.89,0,15.62-1.15,23.19-3.45c13.82-4.28,24.5-9.87,32.07-16.78
		c7.56-6.91,12.74-14.47,15.54-22.7c2.79-8.22,4.19-16.28,4.19-24.18c0-7.56-0.73-14.56-2.22-20.97c-1.48-6.42-3.7-13.4-6.66-20.97
		h-0.5c-2.3,0-4.93-0.82-7.9-2.47c-2.95-1.64-6.99-3.2-12.08-4.68c-5.1-1.48-11.93-2.23-20.47-2.23c-16.46,0-31.01,3.63-43.67,10.86
		c-12.66,7.24-22.61,16.29-29.85,27.13c-7.23,10.86-10.85,21.88-10.85,33.06c0,14.47,5.92,25.99,17.76,34.54
		C1768.73,295.03,1782.54,299.3,1798.33,299.3 M1791.92,558.84c-32.9,0-66.94-9.55-102.14-28.62c-4.93-2.31-8.47-4.36-10.61-6.17
		c-2.14-1.82-3.45-3.87-3.95-6.17c-0.49-2.3-0.74-5.27-0.74-8.88c0-11.51,3.2-23.27,9.62-35.28c6.41-12.01,13.89-22.12,22.45-30.34
		c8.55-8.22,15.79-12.34,21.71-12.34c3.29,0,7.4,1.48,12.34,4.44c19.41,10.2,35.85,15.3,49.34,15.3c11.51,0,21.04-2.47,28.61-7.4
		c7.56-4.94,13.65-10.61,18.26-17.02c4.61-6.41,7.9-12.26,9.87-17.52c1.97-5.26,2.96-8.39,2.96-9.38
		c-13.16,4.28-30.09,6.42-50.82,6.42c-28.62,0-53.46-4.61-74.51-13.82c-21.06-9.21-38.48-21.46-52.3-36.75
		c-13.82-15.3-24.11-32.08-30.84-50.33c-6.75-18.26-10.12-36.27-10.12-54.03c0-28.62,7.9-56.57,23.69-83.88
		c15.79-27.3,39.8-50.16,72.04-68.58c18.75-10.19,36.43-16.94,53.04-20.23c16.61-3.28,31.16-4.93,43.67-4.93
		c16.78,0,28.29,0.99,34.54,2.96c1.64,0.33,2.63,0.49,2.96,0.49c12.49-6.57,23.02-11.17,31.57-13.81
		c8.55-2.63,18.09-3.95,28.62-3.95c15.79,0,25.98,2.95,30.59,8.88c1.64,2.64,4.61,13.57,8.89,32.81
		c4.27,19.25,8.3,43.92,12.08,74.01c3.78,30.1,5.68,62.26,5.68,96.47c0,30.59-2.31,61.27-6.91,92.02
		c-4.61,30.76-12.83,59.3-24.67,85.6c-17.11,36.51-39.15,63.98-66.12,82.41C1853.76,549.63,1824.15,558.84,1791.92,558.84"/>
	<path class="st2" d="M2386.12,255.51c1.76,2.37,1.26,5.72-1.12,7.47c-0.96,0.71-2.07,1.05-3.17,1.05c-1.63,0-3.25-0.75-4.3-2.17
		c-3.32-4.49-8.08-7.51-13.51-8.69c-3.46,79.1-75.83,158.63-158.37,158.38c-82.66,0.25-155.14-79.52-158.38-158.74
		c-5.42,1.18-10.17,4.21-13.49,8.69c-1.75,2.37-5.1,2.88-7.47,1.12c-2.37-1.76-2.88-5.1-1.12-7.47
		c6.38-8.63,16.32-13.58,27.27-13.59h0.01c10.96,0,20.91,4.95,27.3,13.58c1.75,2.37,1.26,5.71-1.12,7.47
		c-0.96,0.71-2.07,1.05-3.17,1.05c-1.64,0-3.25-0.75-4.3-2.17c-3.27-4.42-7.93-7.42-13.24-8.64
		c3.07,77.4,69.49,142.62,147.71,142.62c78.04,0,144.44-64.98,147.7-142.26c-5.31,1.22-9.96,4.22-13.23,8.64
		c-1.75,2.37-5.1,2.87-7.47,1.12c-2.37-1.75-2.87-5.1-1.12-7.47c6.31-8.54,16.11-13.47,26.92-13.57c0.12-0.01,0.24-0.02,0.37-0.02
		c0.13,0,0.27,0.01,0.4,0.02C2370.03,242.06,2379.81,246.99,2386.12,255.51 M2154.52,111.71c19.32-0.33,26.38,49.43,26.38,66.97
		s-7.1,67.3-26.38,66.97c-19.77-0.34-26.38-48.17-26.38-66.97S2134.79,112.05,2154.52,111.71 M2256.8,111.71
		c19.32-0.33,26.38,49.43,26.38,66.97s-7.11,67.3-26.38,66.97c-19.77-0.34-26.38-48.17-26.38-66.97S2237.08,112.05,2256.8,111.71
		 M2205.66,59.03c-107.5-1.54-194.92,90.46-195.98,195.98c-0.75,57.44,26.58,95.55,57.49,140.33c8.68,12.58,15.09,36.71,27.43,45.56
		c12.7,9.1,18.12,1.35,31.51,0.18c36.31-3.19,46.61,48.73,79.56,59.44c32.73-8.69,40.32-53.23,72.92-62.54
		c17.23-4.92,21.14,5.29,38.14-6.14c11.95-8.04,18.94-26.18,27.43-37.17c32.99-42.75,57.51-83.62,57.49-139.65
		C2403.18,147.51,2311.18,60.09,2205.66,59.03"/>
	<path class="st3" d="M2154.52,245.65c19.27,0.33,26.38-49.43,26.38-66.97s-7.06-67.3-26.38-66.97
		c-19.72,0.34-26.38,48.16-26.38,66.97S2134.75,245.31,2154.52,245.65"/>
	<path class="st3" d="M2256.8,245.65c19.27,0.33,26.38-49.43,26.38-66.97s-7.06-67.3-26.38-66.97
		c-19.72,0.34-26.38,48.16-26.38,66.97S2237.03,245.31,2256.8,245.65"/>
	<path class="st4" d="M2358.46,241.94c0.12,0,0.23-0.01,0.35-0.01h0.01c0.14,0,0.27,0.01,0.41,0.01c-0.13-0.01-0.27-0.02-0.4-0.02
		C2358.7,241.92,2358.58,241.93,2358.46,241.94"/>
	<path class="st3" d="M2386.12,255.51c-6.31-8.52-16.09-13.45-26.89-13.57c-0.14,0-0.27-0.01-0.41-0.01h-0.01
		c-0.12,0-0.23,0.01-0.35,0.01c-10.82,0.1-20.62,5.04-26.92,13.57c-1.75,2.37-1.25,5.72,1.12,7.47c2.36,1.75,5.72,1.25,7.47-1.12
		c3.26-4.42,7.92-7.42,13.23-8.64c-3.26,77.27-69.66,142.26-147.7,142.26c-78.22,0-144.64-65.23-147.71-142.62
		c5.31,1.22,9.97,4.22,13.24,8.64c1.05,1.42,2.66,2.17,4.3,2.16c1.11,0,2.22-0.34,3.17-1.05c2.37-1.76,2.87-5.1,1.12-7.47
		c-6.39-8.63-16.34-13.58-27.3-13.58h-0.01c-10.95,0-20.89,4.96-27.27,13.58c-1.76,2.37-1.25,5.72,1.12,7.47
		c2.37,1.76,5.72,1.25,7.47-1.12c3.32-4.49,8.07-7.51,13.49-8.69c3.25,79.23,75.72,158.99,158.38,158.74
		c82.54,0.25,154.91-79.28,158.37-158.38c5.42,1.18,10.19,4.21,13.51,8.69c1.05,1.42,2.66,2.17,4.3,2.17c1.11,0,2.22-0.34,3.17-1.05
		C2387.38,261.23,2387.88,257.88,2386.12,255.51"/>
</g>
</svg>
