<svg viewBox="0 0 1500 2000" xmlns="http://www.w3.org/2000/svg" data-name="Layer 1" id="Layer_1">
  <defs>
    <style>
      .cls-1 {
        fill: #be375a;
      }
    </style>
  </defs>
  <g>
    <path d="M1108.99,1217.54c0-1.65-.34-3.3-.32-4.95.05-4.97.31-9.92.31-14.89,0-4.14-.24-8.28-.36-12.41-.03-.92-.91-10.39-.68-13.69.08-1.15-.19-12.04-9.48-18.27-2.46-1.65-8.09-1.55-10.87-2.07-5.36-.99-9.97.76-14.61,2.88-3.98,1.83-12.64,6.15-13.04,6.34-3.58,1.67-7.12,3.37-10.69,5.03-2.65,1.25-10.03,4.87-11.03,5.5-2.62,1.67-27.8,15.35-28.36,15.65-3.67,1.88-7.38,3.71-11.07,5.55-.74.37-14.12,8.11-16.24,9.19-3.11,1.59-6.1,3.43-9.29,4.85-4.43,1.99-19.53,9.79-20.19,10.11-4.29,2.12-33.61,18.04-38.48,20.81-5.03,2.86-45.34,19.35-47.97,21.03-3.12,1.99-21.63,9.09-23.35,9.84-3.59,1.55-51.03,29.71-53.54,31.24-4.3,2.64-12.96,6.49-17.81,9.3-.19.11-4.38,2.77-1.96-.97.91-.78,2.64-1.73,6.59-5.23,5.53-4.89,17.44-11.36,19.72-13.56,3.9-3.8,35.98-29.58,38.64-31.23,1.39-.86,21.66-15.66,28.82-18.8,5.79-4.16,11.73-8.04,16.29-10.5,2.57-1.38,16.45-10.6,17.62-11.12,2.69-1.2,8.69-5.55,11.37-6.73,3.46-1.54,18.01-10.89,18.53-11.37.74-.66,14.29-7.77,18.8-10.66,1.78-1.13,3.61-2.2,5.39-3.35,1.38-.89,8.27-4.98,10.42-6,1.57-.74,20.21-10.71,27.28-16.1,3.87-2.94,8.15-5.34,12.18-8.09,2.57-1.76,5.34-3.43,7.44-5.68,3.07-2.25,5.76-4.04,8.14-6.28,2.8-2.62,3.01-1.93,5.21-4.47,1.2-1.39,14.53-12.07,16.42-14,2.7-2.73,7.02-8.04,8.12-9.93,1.86-3.2,3.85-6.36,5.53-9.64,1.12-2.18,1.81-4.58,2.7-6.89,1.23-3.17,2.3-6.41,3.72-9.48,1.26-2.72,2.3-5.45,2.25-8.45,1.47-5.99,1.52-10.55,2.39-15.79.4-2.44.99-4.84.92-7.33-.06-2.2.68-4.58.6-6.78-.11-3.11.34-5.95.1-9.04-.18-2.27.52-5.63.19-7.88-.61-4.27-.71-8.11-1.46-12.36-.06-.36-.05-.65-.03-.92.19-.18.4-.36.6-.53,3.75-3.4,4.6-6.21,8.3-9.66.87-.81,1.72-1.7,2.39-2.67,3.92-5.57,7.78-11.16,11.65-16.75.58-.83,1.07-1.72,1.7-2.52,2.64-3.4,3.3-7.88,6.33-11.12,1.36-1.44,7.49-17.86,8.36-20.95.95-3.35,4.51-24.19,4.93-27.08.91-6.16,1.54-12.38,1.26-18.66-.32-7.36-.49-14.74-.74-22.1-.02-.55-1.29-8.93-1.41-12.57-.11-3.59-.83-23.02-1.33-28.52-.13-1.34-.24-2.69-.39-4.03-.05-.45-.11-.91-.18-1.36-.23-1.44-.49-2.88-.71-4.32-.28-1.88.21-3.92-1.25-5.55-.23-.26-.02-.87-.11-1.31-.81-4.03-1.46-8.09-2.52-12.05-.63-2.36-11.02-38.75-12.05-42.65-.94-3.54-2.18-11.91-2.7-12.98-1.42-2.94-3.09-11.62-3.82-14.21-.76-2.67-2.1-10.47-2.96-14.03-1.13-4.69-2.43-10.73-2.54-15.42-.06-2.65-.23-7.57-.45-10.23-.5-5.82-.74-13.12.83-18.53,2.14-7.43,1.93-13.17,7.49-18.83,2.31-2.36,8.95-7.51,9.58-8.17,2.59-2.72,7.23-5.5,9.74-8.32.5-.57,4.55-5,4.82-9.06.36-5.19-.42-67.1-.63-70.04.21-5.91.66-7.46-.13-9.74-.74-2.14-3.88-1.67-5.7-.42-1.2.83-2.48,1.54-3.71,2.33-.7.45-1.46.86-2.01,1.46-4.43,4.76-8.36,10.05-13.96,13.62-4.01,2.56-18.57,20.95-19.45,21.99-3.04,3.56-4.89,8.48-7.86,12.09-1.2,1.46-4.09,8.96-5.7,10.55-1.07,1.07-6.07,12.39-6.67,14.76-1.49,5.79-2.54,10.31-3.59,16.63-.11,3.04-.34,5.32-.65,7.01-.06.34-.18,7.83-.02,9.45.29,12.44,4.58,45.09,5.87,48.65.84,2.31,1.36,4.4,1.86,6.84.65,3.16,2.72,6.04,3.67,9.09,1.81,5.87,3.98,11.63,5.99,17.46.1.26,1.75,6.68,2.54,9.61.74,2.75,8.51,24.14,11.57,32.13.49,1.28.42,2.78,1,3.98,1.52,3.19,2.35,6.54,3.12,9.97.81,3.56,2.17,7.01,3.35,10.47.19.6,2.88,10.24,3.04,10.76.94,2.94,1.54,5.95,2.17,8.98.66,3.17,3.58,26.47,3.9,30.68,1.83,23.69-1.63,56.29-3.11,61.48-.15.52-3.61,16.36-3.85,16.94-.06.16-10.66,24.37-13.36,28.7-9.32,14.9-5.86,9.24-7.46,10.47-1.15-2.64-2.35-5.02-3.24-7.49-1.1-3.09-12.25-31.91-15.63-38.17-1.67-3.06-10.1-27.41-17.31-39.43-4.56-7.6-8.92-15.35-15.05-21.75-1.75-1.83-4.47-3.03-6.71-4.24-2.75-1.5-4.74-.53-5.95,2.3-.32.76-5.74,5.91-5.81,6.91-.26,3.32-17.89,21.54-17.89,23.04-.02,2.75-6.89,7.23-5.92,14.69.94,7.88,25.55,37.04,28.88,43.07,1.75,3.19,11.81,14.24,18.04,22.86,5.03,6.96,10.5,14.87,13.23,20.69.84,1.8-17.72,18.2-19.24,19.45-3.77,3.06-39.56,35.08-43.18,37.75-2.64,1.94-2.44,3.3-5.94,5.71-.45.13-2.52,1.91-2.9,2.33-2.17,2.36-4.09,4.27-6.59,6.25-3.2,2.56-6.71,4.74-9.64,7.7-2.2,2.22-28.4,19.5-31.03,22.83-1.75,2.2-30.61,26.86-33.54,29.51-3.33,3.03-37.15,28.18-41.03,31.7-3.12,2.82-23.2,18.01-25.77,19.93-1.86,1.41-30.4,21.73-34.77,25.26-.53.44-5.81,5.36-6.36,5.76-.86.05-.4-2.07,1.12-4,.18-.23,17.44-22.59,21.23-26.49,3.45-3.54,16.18-21.32,18.82-24.03,2.56-2.62,15.47-19.27,17.96-21.71,3.07-3.03,21.54-23.22,23.82-26.42,2.57-3.61,20.65-23.77,26.21-30.5,2.69-3.25,4.9-6.92,8.48-9.4.73-.5,1.26-1.34,1.8-2.09,1.44-2.02,2.7-4.17,4.27-6.08,2.33-2.85,4.82-5.55,7.33-8.25,2.49-2.69,5.16-5.23,7.62-7.94,3.16-3.48,7.8-11.46,10.74-15.05,8.15-9.97,14.38-25.03,16.91-28.4,3.82-5.06,14.55-35.06,16.03-38.33.83-1.83,3.79-13.27,3.12-27.21-.4-8.54-1.78-12.01-4.06-17.52-1.41-3.38-2.1-4.95-3.95-8.14-.08-.15-.18-.31-.26-.45-1.26-2.25-2.36-4.61-3.83-6.7-1.63-2.31-12.62-16.54-14.4-18.98-2.36-3.27-11.84-14.16-13.54-15.82-3.17-3.09-14.63-14.35-16.54-16.36-3.43-3.58-14.08-15.18-15.24-16.23-2.52-2.28-4.93-4.71-7.59-6.83-1.25-1-1.84-1.96-1.6-3.48.11-.73.11-1.47.28-2.2.65-3.03,1.28-6.07,2.04-9.08.66-2.57.71-7.44,1.62-9.93,1.31-3.64,3.59-17.94,4.26-21.79.58-3.33,1.5-6.41,2.3-9.76,1.1-4.64,1.75-6.6,2.72-10.65.06-.99.49-1.96.81-2.91.47-1.38,1.15-2.69,1.5-4.09,1.33-5.06,5.5-18.01,5.89-19.01.61-1.62,4.64-10.81,6.12-13.75,1.52-3.06,2.93-6.15,4.5-9.19,1.13-2.2,2.48-4.3,3.66-6.49,1.16-2.17,5.39-12.23,6.36-13.69.86-1.28,4.21-7.54,5.13-9.34,1.83-3.58,5.65-7.3,7.75-11.24,1.08,1.23,3.66,3.95,4.26,5.02,2.23,3.92,5.45,7.2,7.17,11.42,1.6,3.96,3.87,7.69,4.11,12.13.1,1.7,2.67,4.56,4.21,4.63,2.57.11,5.23.37,7.7-.11,2.22-.42,11.39,1.62,11.54,1.62.84.58,1.6,1.44,2.51,1.65,2.75.66,4.85,2.3,6.59,4.32,2.39,2.77,5.81,4.58,7.46,8.04.18.39.66.63,1,.94,4.9,4.3,6.52,10.27,8.25,16.18.52,1.76,1.08,3.51,1.65,5.26.24.78.55,1.54.76,2.33.57,2.1.79,4.37,1.72,6.28,2.62,5.44,4.06,11.24,5.57,17.04.5,1.96,1,3.92,1.28,5.92.45,3.28.65,6.6,1.08,9.89.26,1.91.84,3.77,1.16,5.66.86,5.06,1.62,10.14,2.46,15.21.61,3.72,1.59,7.39,1.81,11.13.26,4.38.84,19.29.32,21.36-.4,1.57.13,2.22,1.76,2.41,2.44.29,4.77.02,6.76-1.67,1.34-1.13,2.75-2.17,4.09-3.3,1.89-1.62,11.28-14.71,12.46-18.8,1.54-5.37,3.88-10.52,5.61-15.86.91-2.78,1.21-5.76,1.8-8.64.37-1.88.95-3.75,1.08-5.65.18-2.67.02-5.34,0-8.03-.02-3.12-3.51-24.5-4.74-26.73-.52-.94-.95-1.94-1.36-2.94-1.65-4.19-3.14-8.45-4.95-12.57-1.89-4.27-4.24-8.35-4.74-13.12-.05-.42-.36-.83-.58-1.21-2.54-4.27-5.26-8.43-7.56-12.83-1.99-3.8-4.55-7.14-7.35-10.27-3.92-4.38-8.07-8.54-13.46-11.28-1.5-.76-2.86-1.54-4.61-1.6-5.16-.16-10.32-.68-15.47-.55-4.58.11-9.16.71-13.69,1.41-2.82.44-3.01.5-4.17-2.07-.97-2.17-2.04-4.35-3.33-6.34-1.83-2.83-4-5.44-5.87-8.24-1.42-2.12-6.23-10.42-7.17-11.47-.95-1.07-1.65-2.38-2.35-3.66-.28-.5-.5-1.33-.28-1.76,1.08-2.12,2.25-4.21,3.54-6.21,1.13-1.78,2.44-3.45,3.71-5.16.44-.6,5.91-5.63,7.94-7.88,2.35-2.59,4.82-5.05,7.26-7.54,2.77-2.83,13.85-15.52,14.63-16.15,2.98-2.44,5.97-4.89,8.96-7.33.28-.23.55-.5.76-.79,1.54-2.17,3.35-4.06,5.21-5.97,2.75-2.85,5.63-5.48,8.7-7.93,1.29-1.04,2.77-1.84,3.96-2.98,9.9-9.4,20.71-17.7,31.62-25.86.81-.6,1.59-1.28,2.31-1.96,3.85-3.59,7.85-6.97,12.46-9.58,2.23-1.26,4.6-2.33,6.71-3.75,4.11-2.75,19.92-13.25,22.8-15.37,3.12-2.28,6.12-4.72,9.09-7.18,1.63-1.36,8.95-8.33,10.95-10.97.99-1.29,3.92-3.98,4.3-5.52,2.78-4.93,2.65-4.58,3.83-10.06.19-.87.58-8.32.57-9.24-.08-4.95-.13-9.45,0-14.4.18-6.89-.32-13.17,0-20.05.05-1.2-.16-3.69,0-4.85,0-4.64.66-8.4,0-12.75-.15-.91.02-1.84.02-2.77-.03-2.75,0-5.5-.13-8.25-.08-1.55.18-3.01.11-4.56-.1-2.38-.73-4.84-.66-7.22.1-3.95.34-7.91.26-11.86-.05-2.48-.57-4.93.15-7.39.06-.23.92-17.83.26-19.71.08-4.48.49-6.21,0-9.29-.37-2.35-.05-5.27-.57-7.59-.42-1.88-.55-7.39-1.33-9.16-1.15-2.6-2.22-4.95-3.85-7.23-1.46-2.04-4.34-6.75-14.32-8.28-.89-.13-23.36-.81-27.41-.86-4.48-.06-28.64-.78-30.39-.76-1.93.03-3.87.06-5.79-.06-4.77-.32-44.64-.5-46.37-.57-6.05-.24-27.88-.15-31.65.02-1.83.08-3.66.24-5.5.32-3.58.15-7.15.28-10.73.4-2.2.08-4.37.06-6.37,1.34-1.07.68-2.43.87-3.56,1.47-2.51,1.33-5.48,2.28-7.3,4.29-5,5.48-8.41,12.05-10.48,19.21-.5,1.72-.4,3.61-.47,5.42-.1,2.77,3.38,56.11,2.35,61.47.95,3.58-.06,7.15-.06,10.73,0,2.94.65,17.65.87,22.09.08,1.47,1.38,2.98,2.33,4.32,2.48,3.45,5.4,6.29,9.95,6.7.45.03,15.68,2.62,15.99,2.75,2.25.91,73.16-2.39,74.07-2.39,3.49.02,11.73-1.16,15.03-1.91,1.89-.42,2.72-1.97,3.2-3.8.6-2.22-1.68-46.53-1.76-47.41-.57-6.25-2.69-12.81-5.97-16.29-11.26-11.92-19.32-10.24-23.96-9.27-4.42.92-15.05,7.44-13.72,13.91-.58,11.97,6.16,7.17,4.51,16.57-.4,2.35-4.04,11.54-6.63,13.33-5.03,3.48-10.84,6.88-29.71,5.21-8.19-.71-12.94-4.21-14.89-15.23-.13-.73-1.42-47.05-1.23-48.22,1.8-11.24,7.07-16.28,19.76-17.52,3.64-.36,7.33.05,11,.26,5.32.29,12.04-.83,17.36-.57,4.58.23,9.17.23,13.75.32,6.81.15,27.46-1.5,27.2-.44,2.02.21,27.02,2.44,29.69,3.22,17.64,5.11,23.95,19.03,25.98,36.5.42,3.64,2.28,9,2.28,12.67,0,2.67.4,5.39.02,7.99-.42,2.85,1.62,21.36,2.09,26.5,1.86,19.9-5.68,53.07-14.85,61.77-3.37,3.2-12.59,11.83-13.25,12.94-1.73,3.01-7.59,5.55-10.18,7.56-4.6,3.56-11.16,9.68-15.76,13.23-3.2,2.48-30.66,23.62-36.37,28.4-3.03,2.52-5.99,5.15-8.9,7.8-3.19,2.9-5.74,6.52-9.82,8.4-.47.23-.81.74-1.21,1.12-2.72,2.49-9.95,8.48-12.6,11.02-1.78,1.7-3.48,3.51-5.13,5.34-1.54,1.7-2.96,3.51-4.5,5.23-1.76,1.97-4.19,3.33-5.36,5.89-.24.52-.94.83-1.42,1.25-.68.57-1.44,1.08-2.02,1.73-1.78,1.97-15.48,17.65-16.34,18.83-1.68,2.3-3.27,4.66-5.02,6.92-.36.45-4.35-1.25-4.98-1.25-2.65.02-5.34-.29-7.98-.11-4.16.28-8.11,1.54-11.84,3.43-1.46.74-2.91,1.52-4.38,2.25-3.85,1.91-7.72,3.79-11.57,5.68-.16.08-.28.24-.42.36-3.95,2.69-8.12,5-11.91,7.93-3.33,2.57-28.54,21.29-31.1,24.45-4.04,5-13.54,15.21-13.83,15.65-2.36,3.61-12.04,16.96-13.87,20.76-1.8,3.72-3.67,7.41-5.45,11.15-1.67,3.49-3.19,6.84-3.93,10.69-.91,4.74-3.37,10.18-2.78,14.97.4,3.19,1.04,6.34,1.55,9.51.19,1.18,2.07,4.29,2.41,5.42,1.26,4.24,13.25,23.59,13.75,24.35,1.88,2.83,3.79,5.66,5.71,8.46,1.39,2.04,2.78,4.09,4.27,6.07.87,1.15,8.72,13.48,9.22,14.11,2.33,2.96,4.51,6.04,6.94,8.9.95,1.12,1.21,2.12,1.04,3.49-.34,2.52-4.4,43.98-4.84,49.72v.1c-.24,3.37-1.12,6.71-1.97,10-1.25,4.81-1.44,10.13-2.86,14.89-1.47,4.92-2.59,10.02-4.69,14.66-2.96,6.5-7.64,19.53-11.03,25.84-.87,1.62-6.52,9.77-7.35,11.42-2.17,4.34-4.38,7.96-6.6,12.26-1,1.93-6.8,12.9-7.23,13.41-1.26,1.54-26.03,36.79-27.75,39.19-.74,1.05-1.5,2.07-3.3,2.22.05-1.13.26-2.12.15-3.09-.7-5.63-.52-10.78-.42-14.08.13-4.22-.06-10.55.03-11.28.5-3.54.89-43.31.87-44.3-.03-2.48,1.28-134.71,1.29-138.98.02-4.47-.4-33.22-.42-38.38-.02-4.6.66-20.27-.81-23.44-.03-.08-.03-4.64.03-6.83.05-1.46.84-45.09.55-47.39-.42-3.37-.05-6.75-.21-10.13-.21-4.56-.26-9.16-.53-13.74-.15-2.65.78-32.36.95-34.62.19-2.35.6-16.75.39-17.23-.06-.15,4.22-10.05,4.84-11.29,1.29-2.59,2.98-4.84,5.13-6.8,1.02-.92,2.05-1.94,2.67-3.14.95-1.88,2.09-3.41,4.04-4,.55-2.27.16-4.3-.74-6.12-1.1-2.22-1.39-4.55-1.76-6.91-.24-1.62-.57-3.3-1.28-4.76-1.05-2.14-.66-3.9.65-5.66,1.47-1.96,2.48-2.15,4.3-.53,1.63,1.47,3.22,3.04,4.6,4.76.95,1.18,1.78,2.6,2.17,4.06.79,3.01,1.23,6.1,1.83,9.16.49,2.51-1.1,12.81-1.28,14.9-.05.6-4.79,6.81-7.65,8.22-.28.13-4.19,2.14-5.32,3.85-.57.86-1.8,1.25-2.57,2.01-1.08,1.07-3.54,8.09-2.65,10.5,1.23,3.28,2.1,6.68,5.13,9.25,1.47-.1,14.16,7.72,14.8,8.01,2.59,1.21,5.21,2.46,8.14,2.35,3.58-.13,7.15-.47,10.73-.74.45-.03,4.22-1.34,5.6-2.02,1.46-.73,2.88-1.55,4.26-2.43,1.39-.87,2.77-1.81,4.06-2.82,1.49-1.16,3.28-2.02,3.87-4.11.15-.53,4.56-5.73,5.99-8.04,1.44-2.35,2.2-5.16,3.9-7.25,3.71-4.56,3.82-10.24,5.42-15.45-.65-4.43.13-9.04-1.81-13.32-.32-.71-.11-1.63-.26-2.43-.55-2.98-.84-6.04-1.78-8.88-1.15-3.46-3.51-6.36-5.05-9.71-1.55-3.35-4.34-6.1-7.26-8.53-1.83-1.52-3.82-3.03-5.16-4.93-1.88-2.65-4.43-4.13-7.2-5.39-3.58-1.65-7.2-3.24-10.89-4.63-2.44-.92-13.96.26-16.05-.13.95-.66,4.56-3.72,5.05-3.88,2.59-.87,8.2-3.04,8.46-3.03,4.4.39,8.54,1.47,11.73,4.77,1.26,1.31,2.12,3.25,3.62,4.01,3.77,1.88,6.62,5.39,11.02,6.13,1.62.28,18.88,3.56,25.9,1.34,2.28-.73,4.42-1.84,5.81-3.96,1.91-2.9,3.88-5.76,5.76-8.69,1.33-2.09,2.91-3.27,5.63-3.17,2.02.08,3.67.5,5.4,1.54,2.78,1.65,6.25,2.15,8.35,4.98.15.19,2.98,1.96,4.08,2.77,1.91,1.41,3.62,3.28,5.76,4.17,2.46,1.02,4.56,2.3,6.44,4.13,2.6,2.54,6.08,3.32,9.37,4.4,2.27.73,4.76.83,6.94,1.7,2.99,1.18,15.68-1.08,16.5-1.5,3.9-2.02,7.94-3.88,10.27-7.96.05-.08.11-.15.19-.19,2.31-1.5,3.35-3.87,4.24-6.29.97-2.67,2.86-9.68,2.7-10.47-.44-2.25-.87-4.5-1.46-6.7-.83-3.11-1.49-6.29-2.77-9.21-1.28-2.91-3.25-5.5-4.92-8.25-.81-1.33-1.5-2.62-2.86-3.61-1.6-1.15-2.94-2.73-4.19-4.3-2.51-3.14-5.55-5.53-9.16-7.25-1.67-.79-3.43-1.54-4.81-2.7-1.72-1.47-28.46.55-32.65,1.12-3.64.5-7.22,1.42-10.87,1.89-3.33.42-6.5,1.15-9.37,3.01-.74.49-1.67.74-2.52,1.07-3.96,1.47-12.6,4.71-12.85,4.97-1.7,1.78-3.75,2.91-6.16,3.46-1.78.4-15.05,5.1-16.88,5.73-1.55-1.47-15.11,1.81-20.47,1.13-2.05-.26-4.13-.49-6.07-1.89,2.78-2.69,6.02-4.71,7.94-8.27,2.02-.29,3.45-1.84,4.77-3.53.57-.73,1.05-1.54,1.73-2.14,2.05-1.83,4.19-3.56,6.26-5.36,4.51-3.92,8.96-7.88,13.53-11.73,2.25-1.89,4.74-3.48,7.01-5.34,3.46-2.85,6.96-5.71,10.21-8.79,2.31-2.18,4.4-4.66,6.36-7.18,1.49-1.93,2.73-4.09,3.87-6.26,1.33-2.52,2.59-5.1,3.54-7.77.66-1.88.76-3.95,1.07-5.94.39-2.51.78-5.03,1.1-7.54.31-2.36.47-4.77.87-7.12.23-1.23-.83-5.42-.63-6.34.23-1.13.37-2.12-.29-3.17-.28-.44-.36-1.04-.4-1.59-.5-4.93-.92-19.08-.6-20.5.92-3.92,3.19-13.54,3.33-14.43.44-2.72.84-5.44,1.28-8.14.39-2.36,1.04-4.69-.81-6.83-.45-.52-2.7-5.82-4.76-6.55-2.69-.94-9.59-2.01-14.67-.97-3.06.63-6.42,3.45-6.96,3.8-1.28.86-2.67,1.6-3.75,2.65-1.91,1.86-3.62,3.92-5.44,5.89-1.12,1.21-2.46,2.27-3.37,3.62-2.09,3.14-4.22,6.29-5.84,9.66-1.39,2.9-3.45,5.21-5.26,7.73-.37.52-.91.95-1.2,1.5-2.33,4.6-4.77,9.14-6.88,13.83-2.1,4.71-3.69,9.63-5.78,14.34-.99,2.22-1.72,4.22-1.63,6.76.1,2.98-.74,6-1.21,9-.57,3.72-1.26,7.43-1.75,11.15-.7,5.36-.95,10.79-2.78,15.97-1.31,3.72-2.36,7.59-4.04,11.13-2.41,5.03-4.71,10.21-9.14,13.96-.21.18-.32.45-.52.65-2.2,2.07-4.98,3.22-7.56,4.69-.11.06-.34-.1-.86-.24-.28-1.83-.58-3.8-.84-5.79-.05-.34,0-.81.21-1.05,1.5-1.78.83-8.56.95-9.93.21-2.2.34-4.43.84-6.57.84-3.58,1.76-7.14,2.98-10.6,1.31-3.71,3.03-7.28,4.55-10.92,1.1-2.6,1.93-5.39,3.4-7.77,1.21-1.96,1.81-3.96,2.14-6.15.1-.63.21-1.28.44-1.88,1.76-4.72,3.56-9.42,5.32-14.14.19-.5.24-1.07.34-1.62.49-2.9.84-5.82,1.49-8.69.58-2.59,1.68-5.06,2.22-7.65.99-4.82,1.67-9.72,2.62-14.56,1.05-5.31,1.31-10.78,3.58-15.82.66-1.47,1.15-3.22,1.07-4.81-.24-5.73-2.22-10.99-5.05-15.9-1.34-2.35-12.88-2.65-14.43-2.88-4.74-.7-9.48-.86-14.29-.45-3.37.29-6.91.49-10.16-.21-3.27-.71-6.47-1.21-9.8-1.29-2.15-.05-5.02.19-7.26-.23v-.05c-.06.02-.13.02-.19.03-.06-.02-.13-.02-.19-.03v.05c-2.25.4-5.11.18-7.26.23-3.32.08-6.54.58-9.8,1.29-3.25.71-6.78.5-10.16.21-4.81-.4-9.55-.24-14.29.45-1.54.23-13.07.55-14.43,2.88-2.83,4.92-4.81,10.18-5.05,15.9-.06,1.59.42,3.33,1.07,4.81,2.27,5.05,2.52,10.52,3.58,15.82.95,4.84,1.63,9.74,2.62,14.56.53,2.59,1.63,5.06,2.22,7.65.65,2.86,1,5.79,1.49,8.69.1.55.15,1.1.34,1.62,1.76,4.72,3.56,9.42,5.32,14.14.23.6.34,1.25.44,1.88.32,2.18.92,4.17,2.14,6.15,1.47,2.38,2.28,5.16,3.4,7.77,1.54,3.64,3.24,7.22,4.55,10.92,1.23,3.45,2.15,7.02,2.98,10.6.5,2.14.63,4.37.84,6.57.13,1.38-.57,8.17.95,9.93.21.24.26.71.21,1.05-.26,1.99-.57,3.96-.84,5.79-.52.16-.74.31-.86.24-2.57-1.47-5.36-2.62-7.56-4.69-.19-.19-.31-.47-.52-.65-4.43-3.74-6.73-8.93-9.14-13.96-1.7-3.54-2.73-7.41-4.04-11.13-1.81-5.16-2.09-10.6-2.78-15.97-.49-3.72-1.16-7.43-1.75-11.15-.47-2.99-1.31-6.02-1.21-9,.08-2.56-.65-4.56-1.63-6.76-2.09-4.71-3.69-9.63-5.78-14.34-2.09-4.69-4.55-9.24-6.88-13.83-.29-.57-.83-.99-1.2-1.5-1.81-2.54-3.87-4.85-5.26-7.73-1.63-3.38-3.75-6.54-5.84-9.66-.91-1.36-2.25-2.41-3.37-3.62-1.81-1.96-3.53-4.03-5.44-5.89-1.08-1.05-2.48-1.81-3.75-2.65-.53-.36-5.1-5.13-9.3-5.58-1.36-.15-9.64,1.8-12.33,2.73-2.05.73-4.3,6.04-4.76,6.55-1.84,2.12-1.21,4.47-.81,6.83.45,2.72.84,5.44,1.28,8.14.15.89,2.41,10.52,3.33,14.43.34,1.42-.08,15.56-.6,20.5-.05.53-.13,1.15-.4,1.59-.66,1.04-.52,2.02-.29,3.17.19.94-.86,5.11-.63,6.34.42,2.35.57,4.74.87,7.12.34,2.52.71,5.03,1.1,7.54.31,1.99.4,4.06,1.07,5.94.94,2.67,2.22,5.24,3.54,7.77,1.13,2.17,2.38,4.32,3.87,6.26,1.96,2.52,4.04,5,6.36,7.18,3.27,3.09,6.75,5.94,10.21,8.79,2.27,1.86,4.76,3.45,7.01,5.34,4.56,3.85,9.01,7.83,13.53,11.73,2.07,1.8,4.21,3.53,6.26,5.36.68.6,1.16,1.42,1.73,2.14,1.33,1.7,2.75,3.24,4.77,3.53,1.93,3.56,9.9,6.2,12.68,8.88-1.94,1.39-8.75,1.02-10.81,1.28-5.36.68-18.91-2.6-20.47-1.13-1.83-.63-15.1-5.32-16.88-5.73-2.41-.55-4.47-1.67-6.16-3.46-.24-.26-8.88-3.49-12.85-4.97-.86-.32-1.76-.58-2.52-1.07-2.86-1.86-6.02-2.59-9.37-3.01-3.64-.47-7.23-1.39-10.87-1.89-4.19-.58-12.46-4.11-27.2-1.12-1.76.36-3.14,1.91-4.81,2.7-3.61,1.73-6.65,4.13-9.16,7.25-1.25,1.55-2.59,3.14-4.19,4.3-1.38.99-2.07,2.28-2.86,3.61-1.65,2.75-3.62,5.34-4.92,8.25-1.28,2.91-1.94,6.1-2.77,9.21-.58,2.2-1.04,4.45-1.46,6.7-.15.79,1.73,7.8,2.72,10.47.89,2.44,1.93,4.81,4.24,6.29.08.05.15.11.19.19,2.31,4.08,6.37,5.94,10.27,7.96.83.44,13.53,2.7,16.5,1.5,2.18-.87,8.27-3.54,10.86-6.08,1.88-1.83,3.98-3.11,6.44-4.13,2.14-.89,3.85-2.75,5.76-4.17,1.1-.81,3.93-2.57,4.08-2.77,2.1-2.83,5.57-3.33,8.35-4.98,1.73-1.04,3.38-1.46,5.4-1.54,2.72-.1,4.29,1.08,5.63,3.17,1.88,2.93,3.83,5.79,5.76,8.69,1.39,2.12,3.53,3.24,5.81,3.96,7.04,2.23,14.09,2.6,21.15-.05,1.54-.58,3.16-1,4.77-1.28,4.4-.74,7.25-4.26,11.02-6.13,1.5-.74,2.36-2.7,3.62-4.01,3.2-3.3,7.33-4.38,11.73-4.77.26-.02,5.87,2.14,8.46,3.03.47.16.86.57,1.81,1.23-2.09.39-3.69,1.08-5.18.89-2.88-.37-5.21.99-7.65,1.89-3.69,1.38-7.31,2.98-10.89,4.63-2.75,1.26-5.32,2.73-7.2,5.39-1.34,1.91-3.33,3.41-5.16,4.93-2.93,2.44-5.71,5.19-7.26,8.53-1.54,3.35-3.9,6.25-5.05,9.71-.94,2.85-1.25,5.91-1.78,8.88-.15.81.06,1.73-.26,2.43-1.93,4.27-1.16,8.88-1.81,13.32,1.6,5.21,1.72,10.87,5.42,15.45,1.7,2.1,2.46,2.18,3.9,4.53,1.42,2.31,5.82,7.49,5.99,8.04.57,2.09,2.38,2.96,3.87,4.11,1.29,1,2.67,1.94,4.06,2.82,1.38.87,2.8,1.72,4.26,2.43,1.38.68,5.15,1.99,5.6,2.02,3.58.28,7.15.61,10.73.74,2.93.11,5.55-1.13,8.14-2.35.65-.31,13.35-5.39,14.8-5.29,3.03-2.57,3.92-5.97,5.13-9.25.89-2.41-1.57-9.42-2.65-10.5-.78-.76-2.01-1.15-2.57-2.01-1.13-1.72-5.05-3.72-5.32-3.85-2.86-1.41-7.59-7.62-7.65-8.22-.19-2.09-1.78-12.39-1.28-14.9.6-3.06,1.05-6.15,1.83-9.16.39-1.46,1.21-2.88,2.17-4.06,1.38-1.72,2.96-3.28,4.6-4.76,1.81-1.63,2.83-1.42,4.3.53,1.31,1.76,1.7,3.53.65,5.66-.71,1.46-1.04,3.14-1.28,4.76-.36,2.38-.65,4.69-1.76,6.91-.91,1.81-1.04,1.68-.49,3.95,1.46,4.09,2.83,4.29,3.79,6.16.61,1.2,1.67,2.22,2.67,3.14,2.14,1.96,3.83,4.21,5.13,6.8.61,1.25,4.9,11.15,4.84,11.29-.21.5.19,14.9.39,17.23.19,2.27,1.12,31.97.95,34.62-.26,4.58-.32,9.17-.53,13.74-.16,3.38.21,6.76-.21,10.13-.29,2.3-.02,65.82-.21,75.82-.02.86-.03,1.49-.03,1.84-.02,5.15-.45,33.91-.42,38.38.02,4.27-.71,8.56.31,12.85.42,1.75.21,42.88,1.02,47.29.31,1.67.61,34.38-.08,37.59-.7,3.19.34,30.74.19,33.85-.11,2.48-.11,4.93-.16,7.41-.02.99,1.08,25.06.94,30.22,0,.08,0,.18-.02.24-.11,2.82-.53,10.27-.05,13.83.1.73-.1,7.05.03,11.28.1,3.3.28,8.45-.42,14.08-.11.97.1,1.96.15,3.09-1.8-.15-2.56-1.16-3.3-2.22-1.72-2.41-26.49-37.67-27.75-39.19-.44-.52-6.23-11.49-7.23-13.41-2.22-4.3-4.43-7.93-6.6-12.26-.83-1.65-6.47-9.79-7.35-11.42-3.4-6.29-8.07-19.33-11.03-25.84-2.1-4.64-3.22-9.74-4.69-14.66-1.42-4.76-1.63-10.08-2.86-14.89-.84-3.28-1.73-6.63-1.97-10v-.1c-.44-5.74-4.51-47.18-4.84-49.72-.18-1.38.1-2.38,1.04-3.49,2.43-2.86,4.61-5.94,6.94-8.9.5-.63,8.35-12.96,9.22-14.11,1.49-1.97,2.88-4.03,4.27-6.07,1.93-2.82,3.82-5.63,5.71-8.46.5-.76,12.51-20.11,13.75-24.35.34-1.13,2.22-4.24,2.41-5.42.52-3.17,1.15-6.33,1.55-9.51.6-4.79-1.86-10.23-2.78-14.97-.74-3.85-2.27-7.18-3.93-10.69-1.78-3.74-3.66-7.41-5.45-11.15-1.83-3.8-11.5-17.15-13.87-20.76-.29-.44-9.79-10.63-13.83-15.65-2.54-3.16-27.75-21.89-31.1-24.45-3.8-2.93-7.98-5.24-11.91-7.93-.15-.1-.28-.28-.42-.36-3.85-1.89-7.72-3.79-11.57-5.68-1.47-.73-2.91-1.5-4.38-2.25-3.72-1.89-7.67-3.16-11.83-3.43-2.64-.18-5.32.15-7.98.11-.61,0-4.63,1.7-4.98,1.25-1.75-2.25-3.33-4.61-5.02-6.92-.87-1.18-14.58-16.88-16.34-18.83-.6-.65-1.34-1.16-2.02-1.73-.49-.4-1.18-.71-1.42-1.25-1.16-2.56-3.59-3.92-5.36-5.89-1.52-1.72-2.94-3.53-4.5-5.23-1.67-1.83-3.35-3.62-5.13-5.34-2.65-2.54-9.9-8.53-12.6-11.02-.4-.37-.74-.89-1.21-1.12-4.08-1.88-6.63-5.5-9.82-8.4-2.93-2.65-5.87-5.27-8.9-7.8-5.73-4.77-33.17-28.64-36.37-31.13-4.58-3.56-11.16-6.96-15.76-10.5-2.59-2.01-7.43-5.44-10.18-7.56-3.56-2.73-13.77-10.76-16.55-14.48-9.74-12.99-5-22.83-6.75-54.49-.28-5.16.45-29.4.03-32.25-.39-2.6,0-5.32.02-7.99,0-3.67,1.86-9.01,2.28-12.67,2.04-17.49,13.8-31.39,31.44-36.5,2.65-.78,19.48-3.01,21.5-3.22-.24-1.05,20.4.6,27.2.44,4.58-.1,9.17-.1,13.75-.32,5.32-.26,12.04.86,17.36.57,3.66-.19,7.35-.61,11-.26,12.68,1.26,17.96,6.28,19.76,17.52.18,1.16-1.1,47.49-1.23,48.22-1.93,11.02-1.23,14.5-9.43,15.23-18.87,1.65-30.14-1.73-35.16-5.21-2.59-1.8-6.21-5.53-6.63-7.88-1.65-9.4,5.08-10.05,4.51-22.02,1.33-6.46-9.3-12.99-13.72-13.91-4.64-.97-18.83-2.6-30.09,9.32-3.28,3.48-5.4,10.05-5.97,16.29-.08.86,3.77,45.14,4.35,47.36.49,1.83,1.31,3.38,3.2,3.8,3.28.74,11.52,1.94,15.03,1.91.89,0,71.82,3.3,74.07,2.39.31-.13,15.55-2.7,15.99-2.75,4.56-.39,7.47-3.25,9.95-6.7.95-1.33,2.25-2.83,2.33-4.32.23-4.42.87-19.12.87-22.09,0-3.58-1.02-7.15-.06-10.73-1.04-5.36,2.44-58.7,2.35-61.47-.06-1.81.03-3.72-.47-5.42-2.07-7.15-5.48-13.7-10.48-19.21-1.81-1.99-4.79-2.94-7.3-4.29-1.13-.6-2.49-.79-3.56-1.47-1.99-1.28-4.17-1.26-6.37-1.34-3.58-.13-7.15-.26-10.73-.4-1.83-.08-3.66-.24-5.5-.32-3.77-.16-25.61-.28-31.65-.02-1.75.06-41.61.26-46.37.57-1.93.13-3.87.1-5.79.06-1.75-.03-25.9.7-30.39.76-4.04.05-26.52.73-27.41.86-9.98,1.54-12.86,6.25-14.32,8.28-1.63,2.28-2.7,4.63-3.85,7.23-.78,1.76-.91,7.28-1.33,9.16-.52,2.31-.21,5.24-.57,7.59-.49,3.07-.08,4.81,0,9.29-.66,1.88.19,19.46.26,19.71.71,2.46.19,4.92.15,7.39-.06,3.95.18,7.9.26,11.86.05,2.38-.58,4.84-.66,7.22-.06,1.55.19,3.01.11,4.56-.13,2.75-.1,5.5-.13,8.25-.02.92.15,1.86.02,2.77-.66,4.35,0,8.09,0,12.75.16,1.16-.05,3.67,0,4.85.32,6.89-.18,13.15,0,20.05.13,4.93.08,9.45,0,14.4-.02.92.39,8.35.57,9.24,1.18,5.48,1.04,5.13,3.83,10.06.39,1.52,3.32,4.22,4.3,5.52,2.02,2.64,9.32,9.61,10.95,10.97,2.98,2.46,5.97,4.92,9.09,7.18,2.9,2.12,18.7,12.62,22.8,15.37,2.12,1.42,4.48,2.49,6.71,3.75,4.61,2.59,8.61,5.99,12.46,9.58.74.7,1.5,1.36,2.31,1.96,10.91,8.17,21.71,16.45,31.62,25.86,1.2,1.13,2.67,1.94,3.96,2.98,3.07,2.44,5.95,5.08,8.7,7.93,1.84,1.93,3.66,3.82,5.21,5.97.21.29.49.57.76.79,2.98,2.44,5.97,4.89,8.96,7.33.78.63,11.84,13.32,14.63,16.15,2.44,2.49,4.92,4.95,7.26,7.54,2.02,2.23,7.51,7.28,7.94,7.88,1.25,1.72,2.56,3.38,3.71,5.16,1.28,2.01,2.46,4.09,3.54,6.21.23.44,0,1.26-.28,1.76-.7,1.28-1.39,2.59-2.35,3.66-.94,1.05-5.74,9.34-7.17,11.47-1.88,2.8-4.04,5.4-5.87,8.24-1.29,1.99-2.35,4.16-3.33,6.34-1.15,2.57-1.36,2.49-4.17,2.07-4.53-.7-9.13-1.29-13.69-1.41-5.15-.11-10.31.39-15.47.55-1.73.05-3.11.84-4.61,1.6-5.37,2.73-9.55,6.88-13.46,11.28-2.8,3.14-5.36,6.47-7.35,10.27-2.3,4.38-5.02,8.56-7.56,12.83-.23.39-.55.79-.58,1.21-.5,4.77-2.85,8.85-4.74,13.12-1.83,4.11-3.3,8.38-4.95,12.57-.4,1-.84,2.01-1.36,2.94-1.23,2.23-4.72,23.61-4.74,26.73-.02,2.67-.18,5.36,0,8.03.13,1.89.71,3.77,1.08,5.65.58,2.88.89,5.86,1.8,8.64,1.73,5.32,4.08,10.47,5.61,15.86,1.16,4.09,10.57,17.18,12.46,18.8,1.33,1.13,2.75,2.17,4.09,3.3,1.99,1.68,4.32,1.96,6.76,1.67,1.63-.19,2.17-.84,1.76-2.41-.53-2.07.06-16.97.32-21.36.21-3.74,1.2-7.43,1.81-11.13.83-5.06,1.6-10.14,2.46-15.21.32-1.89.91-3.75,1.16-5.66.44-3.28.63-6.6,1.08-9.89.28-1.99.78-3.96,1.28-5.92,1.5-5.79,2.94-11.58,5.57-17.04.92-1.93,1.15-4.19,1.72-6.28.21-.79.52-1.55.76-2.33.55-1.75,1.13-3.49,1.65-5.26,1.73-5.92,3.35-11.89,8.25-16.18.34-.31.83-.55,1-.94,1.65-3.46,5.06-5.27,7.46-8.04,1.73-2.01,3.83-3.66,6.59-4.32.91-.21,1.67-1.08,2.51-1.65.15,0,9.3-2.05,11.54-1.62,2.49.49,5.13.23,7.7.11,1.54-.06,4.11-2.91,4.21-4.63.24-4.45,2.51-8.17,4.11-12.13,1.72-4.22,4.93-7.52,7.17-11.42.61-1.07,3.17-3.79,4.26-5.02,2.1,3.93,5.92,7.67,7.75,11.24.92,1.8,4.27,8.06,5.13,9.34.97,1.46,5.19,11.54,6.36,13.69,1.18,2.18,2.52,4.27,3.66,6.49,1.57,3.03,2.98,6.13,4.5,9.19,1.47,2.94,5.48,12.13,6.12,13.75.39,1,4.56,13.95,5.89,19.01.37,1.39,1.04,2.72,1.5,4.09.32.95.74,1.93.81,2.91.95,4.04,1.62,6,2.72,10.65.79,3.35,1.72,6.42,2.3,9.76.68,3.85,2.94,18.15,4.26,21.79.91,2.51.95,7.36,1.62,9.93.78,2.99,1.39,6.04,2.04,9.08.16.71.16,1.47.28,2.2.24,1.52-.36,2.49-1.6,3.48-2.65,2.12-5.06,4.55-7.59,6.83-1.16,1.05-11.79,12.65-15.24,16.23-1.91,1.99-13.36,13.25-16.54,16.36-1.7,1.67-11.18,12.57-13.54,15.82-1.78,2.44-12.75,16.67-14.4,18.98-1.47,2.09-2.57,4.45-3.83,6.7-.08.16-.18.31-.26.45-1.84,3.2-2.54,4.77-3.95,8.14-2.3,5.5-3.66,8.98-4.06,17.52-.66,13.95,2.3,25.4,3.12,27.21,1.49,3.27,12.23,33.27,16.03,38.33,2.52,3.35,8.75,18.43,16.91,28.4,2.94,3.59,7.59,11.58,10.74,15.05,2.48,2.72,5.13,5.26,7.62,7.94,2.51,2.7,5,5.4,7.33,8.25,1.57,1.91,2.83,4.06,4.27,6.08.53.74,1.05,1.59,1.8,2.09,3.58,2.48,5.79,6.15,8.48,9.4,5.58,6.73,23.64,26.89,26.21,30.5,2.28,3.2,20.73,23.4,23.82,26.42,2.49,2.44,15.4,19.09,17.96,21.71,2.64,2.7,15.37,20.48,18.82,24.03,3.79,3.9,13.41,15.86,13.61,16.1,1.5,1.93,1.97,4.04,1.12,4-.57-.39-8.04-1.7-8.58-2.14-4.35-3.53-23.06-17.09-24.92-18.49-2.57-1.93-22.65-17.12-25.77-19.93-3.88-3.49-37.7-28.67-41.03-31.7-2.93-2.65-31.79-27.3-33.54-29.51-2.64-3.33-28.83-20.61-31.03-22.83-2.93-2.94-6.42-5.13-9.64-7.7-2.48-1.97-4.42-3.87-6.59-6.25-.37-.4-2.44-2.2-2.9-2.33-3.48-2.41-3.28-3.77-5.94-5.71-3.62-2.67-39.41-34.67-43.18-37.75-1.54-1.25-20.1-17.65-19.24-19.45,2.73-5.82,8.2-13.74,13.23-20.69,6.23-8.62,16.29-19.67,18.04-22.86,3.32-6.03,24.46-25.55,25.4-33.43.95-7.46-5.91-11.94-5.92-14.69-.02-1.5-17.64-19.72-17.89-23.04-.08-1-5.48-6.13-5.81-6.91-1.21-2.83-3.2-3.79-5.95-2.3-2.25,1.21-4.97,2.41-6.71,4.24-6.13,6.39-10.48,14.12-15.05,21.75-7.22,12.02-12.18,26.73-13.83,29.79-3.4,6.26-14.55,35.06-15.65,38.17-.87,2.49-2.07,4.85-3.24,7.49-1.62-1.23,1.84,4.43-7.46-10.47-2.7-4.34-13.28-28.52-13.36-28.7-.24-.58-3.71-16.42-3.85-16.94-1.47-5.19-4.93-37.8-3.11-61.48.32-4.22,3.24-27.51,3.9-30.68.63-3.03,1.23-6.02,2.17-8.98.16-.5,2.83-10.16,3.04-10.76,1.18-3.48,2.54-6.91,3.35-10.47.78-3.43,1.6-6.78,3.12-9.97.58-1.21.52-2.72,1-3.98,3.04-7.99,10.81-29.38,11.57-32.13.81-2.93,2.46-9.35,2.54-9.61,2.01-5.81,4.16-11.58,5.99-17.46.94-3.06,3.03-5.94,3.67-9.09.5-2.43,1.02-4.53,1.86-6.84,1.29-3.58,5.58-36.21,5.87-48.65.16-1.62.03-9.11-.02-9.45-.31-1.7-.53-3.96-.65-7.01-1.05-6.31-2.1-10.84-3.59-16.63-.6-2.35-5.6-13.69-6.67-14.76-1.6-1.59-4.48-9.09-5.7-10.55-2.98-3.61-4.84-8.53-7.86-12.09-.89-1.04-15.44-19.43-19.45-21.99-5.6-3.58-9.53-8.85-13.96-13.62-.55-.6-1.31-1-2.01-1.46-1.23-.79-2.51-1.5-3.71-2.33-1.81-1.25-4.95-1.7-5.7.42-.79,2.28-.36,3.83-.13,9.74-.21,2.94-1,64.85-.63,70.04.28,4.06,4.32,8.49,4.82,9.06,2.51,2.8,7.15,5.6,9.74,8.32.63.66,7.26,5.82,9.58,8.17,5.55,5.66,5.34,11.41,7.49,18.83,1.55,5.4,1.31,12.7.83,18.53-.23,2.65-.39,7.57-.45,10.23-.1,4.69-1.41,10.74-2.54,15.42-.86,3.56-2.22,11.36-2.96,14.03-.73,2.59-2.39,11.24-3.82,14.21-.52,1.07-1.76,9.43-2.7,12.98-1.04,3.88-11.42,40.27-12.05,42.65-1.05,3.96-1.72,8.03-2.52,12.05-.08.44.13,1.05-.11,1.31-1.46,1.63-.97,3.67-1.25,5.55-.21,1.44-.47,2.88-.71,4.32-.06.45-.15.91-.18,1.36-.13,1.34-.26,2.69-.39,4.03-.5,5.5-1.21,24.93-1.33,28.52-.11,3.66-1.39,12.04-1.41,12.57-.24,7.36-.4,14.74-.74,22.1-.28,6.28.36,12.47,1.26,18.66.42,2.88,3.98,23.72,4.93,27.08.87,3.11,7.01,19.53,8.36,20.95,3.03,3.22,3.69,7.72,6.33,11.12.61.79,1.12,1.68,1.7,2.52,3.88,5.6,7.73,11.2,11.65,16.75.68.97,1.52,1.84,2.39,2.67,3.71,3.45,4.55,6.26,8.3,9.66.19.18.4.36.6.53.02.28.03.57-.03.92-.74,4.26-.84,8.09-1.46,12.36-.32,2.25.37,5.63.19,7.88-.24,3.09.21,5.94.1,9.04-.08,2.2.66,4.58.6,6.78-.06,2.49.52,4.89.92,7.33.87,5.24.91,9.8,2.39,15.79-.05,2.99.97,5.73,2.25,8.45,1.42,3.07,2.51,6.31,3.72,9.48.89,2.3,1.57,4.71,2.7,6.89,1.68,3.3,3.67,6.44,5.53,9.64,1.1,1.89,5.4,7.2,8.12,9.93,1.89,1.91,15.21,12.6,16.42,14,2.22,2.54,2.43,1.86,5.21,4.47,2.38,2.23,5.06,4.03,8.14,6.28,2.1,2.25,4.85,3.92,7.44,5.68,4.03,2.75,8.32,5.15,12.18,8.09,7.07,5.39,25.71,15.34,27.28,16.1,2.15,1.04,9.06,5.11,10.42,6,1.76,1.15,3.61,2.22,5.39,3.35,4.51,2.88,18.06,9.98,18.8,10.66.52.47,15.06,9.84,18.53,11.37,2.69,1.2,8.67,5.55,11.37,6.73,1.16.52,15.05,9.74,17.62,11.12,4.56,2.46,10.5,6.34,16.29,10.5,7.17,3.14,27.44,17.93,28.82,18.8,2.65,1.65,31.83,19.88,35.72,23.69,2.27,2.22,14.19,8.69,19.72,13.56,3.95,3.48,5.68,4.45,6.59,5.23,2.44,3.74-1.75,1.08-1.96.97-4.85-2.82-13.49-6.65-17.81-9.3-2.51-1.54-47.03-22.13-50.64-23.7-1.72-.74-20.21-7.83-23.33-9.84-2.62-1.68-42.94-18.17-47.97-21.03-4.87-2.77-34.19-18.69-38.48-20.81-.65-.32-15.76-8.12-20.19-10.11-3.19-1.42-6.18-3.27-9.29-4.85-2.14-1.08-15.52-8.82-16.24-9.19-3.69-1.84-7.39-3.67-11.07-5.55-.57-.29-25.74-13.98-28.36-15.65-1-.63-8.38-4.26-11.03-5.5-3.56-1.67-7.12-3.37-10.69-5.03-.4-.19-9.06-4.51-13.04-6.34-4.64-2.14-9.25-3.87-14.61-2.88-2.78.52-8.41.42-10.87,2.07-9.29,6.21-9.56,17.12-9.48,18.27.23,3.3-.65,12.77-.68,13.69-.11,4.14-.36,8.28-.36,12.41,0,4.97.24,9.92.31,14.89.02,1.65-.32,3.3-.32,4.95,0,3.11.16,6.18.68,9.3.63,3.79.24,7.72.39,11.58.05,1.46-.61,3.25-.49,4.71.16,1.91.34,3.82.32,5.73-.06,4.42-.32,8.83-.34,13.23-.02,3.77-.5.99-.31,4.74.18,3.22.32,6.39.11,9.63-.26,3.93.05,7.9.23,11.84.29,6.25.7,12.49,1,18.72.16,3.33,1.04,19.42,3.01,22.34.79,1.18.65,5.58,8.17,14.61,3.66,5.48,12.26,9.35,14.8,9.59.94.87,22.64-.5,25.81-.47,4.3.03,8.61.29,12.91.29,4.61,0,9.21-.23,13.82-.28,1.55-.02,3.11.23,4.64.36.28.02.55.15.81.15,5.7-.11,26.45-.44,30.74-.36,2.14.03,12.94.16,13.82.06,4.93-.58,10.29.18,15.23-.42,3.46-.42,8.4-.1,11.86-.55,5.79-.45,82.31,3.61,87.61-2.46,7.07-8.07,3.67-11.29-8.24-20.82-5.66-4.53-12.41-8.06-17-10.78-5.58-3.3-16.6-9.92-16.68-10.14,0-.02-17.26-10.13-21.31-12.18-13.12-6.67-24.09-11.79-30.45-15.45-2.94-1.7-63.31-31.81-65.07-32.5-9.68-3.82-15.01.83-16.36,3.49-3.19,6.37-4.97,12.31-4.77,17.49.24,6.07,2.23,15.26,9.55,23.85,3.16,3.71,11.68,8.98,20.9,9.25,5.21.16,14.48-.16,14.84-.16,5.11,0,6.47.49,17.12,4.38,4.64,1.7,40.06,15.01,35.82,18.11-5.61,4.09-3.35,2.67-10.14,2.52-5.39-.11-77.26.55-77.29.55-24.54-1.25-37.91-9.24-40.3-31.91-.42-3.92-3.4-25.47-3.8-32.42-.23-3.93-.65-14.92-.74-16.47-.24-4.04.24-8.36.44-12.41,1.18-23.72,14.64-32.94,38.86-31.4,6.88.44,13.12,4.76,19.27,7.9,4.42,2.25,10.52,5.7,14.89,8.03,4.87,2.59,9.87,4.95,14.8,7.43,6.75,3.4,42.15,22.59,42.28,22.65,2.14.94,4.37,1.73,6.28,3.17.32.24.63.5.94.79,1.78,1.7,24.19,13.15,26.11,14.06,4.06,1.94,59.88,31.45,60.03,31.53,2.56,1.46,45.98,23.49,48.6,25.01,4.29,2.48,31.49,17.51,35.3,19.71,2.46,1.42,5.02,2.67,7.51,4.04.53.29,1.15.68,1.41,1.18,1.46,2.78,11.7,4.37,15.45,3.58,3.75.79,5.94-.79,7.39-3.58.26-.5.87-.89,1.41-1.18,2.49-1.38,5.05-2.62,7.51-4.04,3.82-2.2,31.03-17.23,35.3-19.71,2.62-1.52,46.05-23.56,48.6-25.01.15-.08,55.97-29.59,60.03-31.53,1.91-.92,24.33-12.36,26.11-14.06.31-.29.61-.55.94-.79,1.89-1.44,4.14-2.23,6.28-3.17.13-.06,35.53-19.24,42.28-22.65,4.93-2.49,9.93-4.84,14.8-7.43,4.37-2.33,10.48-5.78,14.89-8.03,6.15-3.14,12.39-7.46,19.27-7.9,24.22-1.55,37.68,7.67,38.86,31.4.19,4.04.68,8.36.44,12.41-.1,1.55-.52,12.54-.74,16.47-.4,6.96-3.38,28.51-3.8,32.42-2.39,22.68-15.76,30.68-40.3,31.91-.03,0-71.9-.65-77.29-.55-6.8.15-9.9,1.63-16.21-1.28-3.82-1.76,34.48-17.86,39.12-19.56,10.65-3.9,14.77-4.17,19.88-4.17.36,0,9.63.32,14.84.16,9.22-.29,17.75-5.55,20.9-9.25,7.31-8.59,9.3-17.78,9.55-23.85.21-5.18-1.57-11.12-4.77-17.49-1.34-2.67-6.68-7.31-16.36-3.49-1.76.7-62.13,30.82-65.07,32.5-6.36,3.66-17.33,8.8-30.45,15.45-4.04,2.05-21.29,12.17-21.31,12.18-.08.23-11.1,6.84-16.68,10.14-4.6,2.72-11.34,6.23-17,10.78-11.91,9.53-15.31,12.75-8.24,20.82,5.32,6.07,81.84,2.01,87.61,2.46,3.45.45,8.4.13,11.86.55,4.93.6,10.29-.16,15.23.42.87.1,11.68-.03,13.82-.06,4.29-.08,25.03.24,30.74.36.28,0,.55-.11.81-.15,1.55-.13,3.11-.37,4.64-.36,4.61.05,9.21.28,13.82.28,4.3,0,8.61-.26,12.91-.29,3.17-.03,24.87,1.34,25.81.47,2.56-.26,11.15-4.13,14.8-9.59,7.52-9.03,7.36-13.43,8.17-14.61,1.97-2.93,2.85-19.01,3.01-22.34.31-6.25.71-12.47,1-18.72.18-3.95.49-7.91.23-11.84-.21-3.24-.06-6.42.11-9.63.21-3.77-.29-.97-.31-4.74-.02-4.42-.28-8.83-.34-13.23-.03-1.91.15-3.83.32-5.73.13-1.46-.53-3.25-.49-4.71.15-3.87-.24-7.81.39-11.58.45-3.14.6-6.2.61-9.32ZM1062.7,1018.17c.61-.4-.24.5-1.68,1.89.21-.81.81-1.33,1.68-1.89ZM1044.49,1061.55c1.18.28,1.33,1.1,1.33,1.88,0,3.58.11-.29.03,3.28-.03,1.28-.37,2.51-2.1,3.33.37-7.01.37-1.62.74-8.49ZM896.49,1208.3c2.17-2.31,4.97-3.22,7.96-3.74-1.93,2.85-5.26,2.57-7.96,3.74ZM909.37,1203.85c-.37.19-1.07-.23-1.62-.36,0-.26-.02-.52-.02-.78,1.73-.86,3.45-1.72,5.18-2.57-.63,1.91-2.04,2.9-3.54,3.71ZM958.99,1157.64c2.39-1.8,4.95-3.2,8.03-3.27-2.46,1.7-5.11,2.82-8.03,3.27ZM943.46,1095.13q-1.57,2.98-3.24,3.93-.26-1.57,3.24-3.93ZM843.15,1211.21c6.23-4.68,11.47-9.21,17.02-14.71,2.85-2.82,16.88-14.29,17.55-14.84,3.8-3.17,6.84-7.9,10.71-10.99,1.65-1.31,3.32-2.62,5.05-3.82,2.04-1.39,22.17-19.98,27.25-24.22,3.17-2.64,6.63-4.9,9.97-7.35.29-.21,5.34-4.4,7.46-6.37,3.56-3.3,7.02-6.7,10.58-10,1.13-1.05,2.36-2.02,3.64-2.93,1.44-1.02,4.22-4.42,4.61-4.6,3.77-1.7,6.37-4.87,9.45-7.46,4.35-3.66,14.24-11.84,14.77-12.33.61-.55,1.21-1.12,1.89-1.59.71-.49,1.38-1.13,2.01-1.84,1.88-2.14,3.49-4.92,5.7-6.29,4.53-2.8,7.6-7.17,11.6-10.53,3.72-3.12,7.38-6.33,11.03-9.55,1.59-1.39,3.09-2.88,4.63-4.32.52-.49,18.57-18.9,19.56-19.79.13,1.38.45,2.02.68,2.85,1.29,4.68,1.42,8.38,1.49,12.88.02,1.91-.26,3.85-.5,5.76-.34,2.64-1.41,9.17-1.41,9.82-.05,5.42-4.47,18.04-5.06,19.27-4.64,9.59-15.21,21.6-33.35,36.26-.1.08-.19.15-.29.23-.68.53-1.33,1.1-1.97,1.67-.29.24-.57.49-.86.74-1.54,1.31-2.99,2.75-4.64,3.9-3.17,2.2-10.21,6.57-10.39,6.76-3.22,3.61-7.98,4.69-11.89,7.15-1.97,1.25-5.7,3.45-7.69,4.81-2.69,1.83-14.27,8.4-16.92,9.24-1.02.32-10.65,5.76-11.47,6.16-4.01,2.02-8.06,4.03-12.04,6.12-3.17,1.67-6.23,3.56-9.42,5.21-3.17,1.65-6.44,3.11-9.64,4.69-4.87,2.39-9.71,4.84-14.58,7.22-1.72.84-3.56,1.44-5.23,2.36-3.93,2.17-7.75,4.6-11.71,6.7-3.48,1.84-6.52,4.01-10.1,5.66-2.41,1.12-5,3.11-7.46,4.13-2.94,1.21-5.11,3.17-8.07,4.37-.76.31-1.46.78-2.18,1.18-.86.45-1.73.91-3.17,1.65,2.51-2.82,1.52-1.86,3.4-3.27ZM437.15,1018.17c.87.57,1.47,1.08,1.68,1.89-1.42-1.39-2.3-2.28-1.68-1.89ZM452.94,1051.42c.19-3.2.39-6.16.57-9.14.23.03.45.08.68.11.94,3.62.52,7.07-1.25,9.03ZM454.03,1066.73c-.08-3.58.02.29.03-3.28,0-.79.13-1.6,1.33-1.88.37,6.88.37,1.49.74,8.51-1.75-.84-2.07-2.09-2.1-3.35ZM559.61,1099.06q-1.65-.95-3.24-3.93,3.51,2.36,3.24,3.93ZM592.1,1203.5c-.55.13-1.26.57-1.62.36-1.49-.81-2.91-1.8-3.53-3.71,1.73.86,3.45,1.72,5.18,2.57-.02.26-.02.52-.03.78ZM530.39,1144.97c-3.92-2.46-8.67-3.56-11.89-7.15-.18-.19-7.22-4.56-10.39-6.76-1.65-1.15-3.11-2.59-4.64-3.9-.29-.24-.58-.49-.86-.74-.65-.57-1.31-1.13-1.97-1.67-.1-.08-.19-.15-.29-.23-18.15-14.66-28.72-26.65-33.35-36.26-.6-1.21-5.02-13.83-5.06-19.27,0-.65-1.07-7.18-1.41-9.82-.24-1.91-.52-3.83-.5-5.76.05-4.5.18-8.22,1.49-12.88.23-.83.57-1.47.68-2.85.99.89,19.04,19.3,19.56,19.79,1.54,1.44,3.04,2.93,4.63,4.32,3.66,3.2,7.31,6.42,11.03,9.55,4.01,3.37,7.09,7.72,11.6,10.53,2.22,1.38,3.82,4.16,5.7,6.29.63.71,1.28,1.36,2.01,1.84.68.47,1.28,1.04,1.89,1.59.53.49,10.42,8.67,14.77,12.33,3.07,2.59,5.68,5.76,9.45,7.46.4.18,3.17,3.58,4.61,4.6,1.28.89,2.51,1.86,3.64,2.93,3.56,3.3,7.02,6.7,10.58,10,2.14,1.97,7.17,6.16,7.46,6.37,3.33,2.43,6.81,4.71,9.97,7.35,5.08,4.24,25.22,22.81,27.25,24.22,1.73,1.2,3.4,2.51,5.05,3.82,3.87,3.09,6.91,7.81,10.71,10.99.68.57,14.71,12.02,17.55,14.84,5.57,5.5,10.79,10.03,17.02,14.71,1.88,1.41.89.45,3.35,3.25-1.44-.76-2.3-1.2-3.17-1.65-.73-.39-1.42-.87-2.18-1.18-2.96-1.2-5.13-3.14-8.07-4.37-2.46-1.02-5.03-3.01-7.46-4.13-3.58-1.65-6.62-3.82-10.1-5.66-3.96-2.1-7.78-4.51-11.71-6.7-1.67-.92-3.51-1.52-5.23-2.36-4.87-2.38-9.71-4.82-14.58-7.22-3.2-1.57-6.47-3.04-9.64-4.69-3.19-1.65-6.25-3.53-9.42-5.21-3.98-2.1-8.01-4.09-12.04-6.12-.83-.42-10.44-5.84-11.47-6.16-2.67-.84-14.24-7.41-16.92-9.24M398.37,1251.63c-.15.03-.31.08-.45.11-.11-.4-.31-.79-.34-1.2-.21-2.15-.68-4.01-1.84-6.13-.42-.78,1.44-1.78,2.64-1.88v9.09ZM399.47,1309.38c1.38,2.41,1.13,5.11,1.38,7.72-1.83-2.33-1.73-5-1.38-7.72ZM460.06,1348.94c-2.94,1.16-7.23,1.12-9.34-.26,3.25-.7,6.15-1.13,9.34.26ZM439.79,1349c-3.28,1.16-6.16.5-9.01-.5,2.9.16,5.92-1.94,9.01.5ZM422.43,1346.33c1.65.32,3.32.63,4.97.95-.05.23-.08.45-.13.7-1.76.21-3.46.13-4.95-1.04.03-.19.08-.4.11-.61ZM566,1249.09c-4.01-.91-6.63-3.82-9.4-6.54-.05-.05.1-.32.28-.87,3.35,1.84,6.65,3.64,9.76,5.74.34.23.37.89.63,1.52-.58.08-.95.23-1.26.15ZM629.07,738.32c-2.69-7.9-6.12-14.22-10.29-21.39-.5-.87-1.12-1.68-1.54-2.59-1.29-2.73-2.33-5.63-3.83-8.25-3.85-6.76-7.15-13.85-11.84-20.13-.11-.16-.02-.49-.02-1.16,1.26.81,6.73,1.5,7.78,2.18,2.91,1.88,5.1,2.6,10,6.36.32.24.63.65.99.92,4.53,3.58,7.9,5.4,12.43,8.98.58.45,1.2.86,1.8,1.28,2.69,1.89,4.51,3.88,6.94,6.07,5,4.5,5.42,5.81,10.18,10.57,3.12,3.11,6.67,8.15,9.59,12.86,2.22,3.56,3.64,5.95,6.15,11.13.61,1.26,7.75,12.43,8.24,21.21.23,4.08-3.09,15.81-4.98,19.11-1.67,2.91-3.48,9.42-5.57,12.1-1.29,1.67-11.28,19.82-12.57,21.65-.68-2.31-1.89-8.4-2.35-10.53-.52-2.51-5.21-22.09-6.76-28.31-.73-2.94-1.63-5.84-2.44-8.75-.52-1.94-11.41-31.86-11.89-33.3ZM682.81,1139.88c-3.11-2.56-6.25-5.05-9.29-7.69-.73-.63-1.08-1.72-1.62-2.59.19-.15.39-.29.58-.44,4.77,2.12,8.09,5.81,10.91,10.03-.19.23-.39.45-.58.68ZM691.32,1147.79c3.43,1.73,5.13,4.29,6.52,7.52-2.65-.84-5.92-4.55-6.52-7.52ZM701.07,1158.7c1.81.52,2.85,1.42,3.09,3.16-1.59-.4-2.98-.99-3.09-3.16ZM714.84,1171.98c2.88,1.38,5.13,3.71,5.53,6-3.14-.99-5.48-3.61-5.53-6ZM729.37,1189.03c-1.86-2.14-3.74-4.24-5.58-6.39-.78-.91-1.54-1.83-2.22-2.82-.23-.32-.19-.83-.28-1.25.21-.16.44-.32.65-.5,2.31,2.85,4.64,5.66,6.92,8.54.47.58.7,1.36,1.02,2.04-.16.13-.34.26-.52.37ZM735.03,1140.1c-2.02-.7-3.09-2.93-4.43-4.14-2.44-2.22-4.77-4.58-6.96-7.05-2.05-2.35-4.55-3.43-6.5-5.87-.63-.78-1.42-1.42-2.18-2.09-2.73-2.44-5.53-4.82-8.19-7.35-2.2-2.09-4.14-4.42-6.36-6.47-2.22-2.05-4.63-3.9-6.92-5.86-1.1-.94-59.02-52.47-60.09-53.46-.23-.21-7.93-8.43-9.29-9.8-3.62-3.66-6.23-6.02-9.8-9.71-1.86-1.93-14.22-17-14.79-17.72-1.02-1.28-9.25-17.1-10.74-19.06-2.83-3.69-8.8-26.86-9.34-30.5-.91-6.15,1.13-12.64,2.28-15.65,1.16-3.69,6.41-9.76,8.54-12.8,3.01-4.27,16.37-24.75,19.66-28.82,1.55-1.93,14.17-17.6,17.43-20.87,3.46-3.46,4.89-5.45,8.07-8.74.05-.05,4.01,26.92,4.48,31.78.55,5.84,1.67,24.97,3.16,32.8,1.84,5.36.76,17.05,5.99,29.25,1.99,4.63,14.29,32.28,15.42,34.17,4.27,7.22,13.41,28.02,21.16,38.72,5.19,7.17,10.1,21.52,19.61,36.13,3.32,5.08,13.7,25,13.93,25.29,3.66,4.63,7.59,16.44,12.04,24.95,1.1,2.17,4.4,9.98,3.83,12.86ZM795.69,1161.83c.24-1.73,1.28-2.64,3.09-3.16-.11,2.18-1.5,2.77-3.09,3.16ZM833.68,965.07c-3.03,2.64-3.85,6.67-6.96,9.22-.19-.23-.39-.45-.58-.68,2.82-4.22,5.13-8.17,8.09-12.52.19.15.39.29.58.44-.53.87-.39,2.9-1.13,3.54ZM834.76,797.57c-2.09-2.67-3.9-9.19-5.57-12.1-1.89-3.32-5.19-15.03-4.98-19.11.49-8.79,7.64-19.93,8.24-21.21,2.49-5.18,3.93-7.57,6.15-11.13,2.93-4.71,6.49-9.76,9.59-12.86,4.76-4.74,5.18-6.07,10.18-10.57,2.43-2.18,4.26-4.17,6.94-6.07.6-.42,1.21-.83,1.8-1.28,4.53-3.58,7.9-5.39,12.43-8.98.36-.28.66-.68.99-.92,4.89-3.75,7.09-4.48,10-6.36,1.05-.68,6.52-1.38,7.78-2.18,0,.68.11,1-.02,1.16-4.69,6.26-7.99,13.36-11.84,20.13-1.49,2.62-2.52,5.5-3.83,8.25-.42.91-1.04,1.72-1.54,2.59-4.17,7.17-7.6,13.49-10.29,21.39-.49,1.46-11.37,31.36-11.91,33.3-.81,2.91-1.72,5.81-2.44,8.75-1.55,6.23-6.23,25.81-6.76,28.31-.44,2.14-1.65,8.24-2.35,10.53-1.28-1.83-11.26-19.98-12.56-21.65ZM773.4,1116.34c4.45-8.53,3.64-9.4,7.28-14.01.23-.29,10.63-20.21,13.93-25.29,9.53-14.61,14.42-28.96,19.61-36.13,7.75-10.69,16.89-31.5,21.16-38.72,1.12-1.89,13.43-29.53,15.42-34.17,5.23-12.2,4.14-23.9,5.99-29.25,1.49-7.83,2.6-26.96,3.16-32.8.47-4.85,4.43-31.83,4.48-31.78,3.17,3.3,4.61,5.29,8.07,8.74,3.25,3.25,15.87,18.95,17.43,20.87,3.28,4.06,16.65,24.54,19.66,28.82,2.14,3.04,7.38,9.11,8.54,12.8,1.15,2.99,3.2,9.5,2.28,15.65-.53,3.64-6.5,26.79-9.34,30.5-1.49,1.96-9.72,17.78-10.74,19.06-.57.71-12.93,15.79-14.79,17.72-3.58,3.69-6.18,6.05-9.8,9.71-1.36,1.38-9.06,9.59-9.29,9.8-1.07.99-58.99,52.52-60.09,53.46-2.3,1.96-4.72,3.8-6.92,5.86-2.22,2.05-4.16,4.4-6.36,6.47-2.65,2.52-5.45,4.89-8.19,7.35-.74.68-10.68,8.64-12.96,9.43-.55-2.91.39-11.92,1.47-14.08ZM1059.39,1171.95c-.31.06-.68-.06-1.26-.15.24-.63.29-1.29.63-1.52,3.12-2.1,6.41-3.9,9.76-5.74.18.57.32.83.28.87-2.75,2.72-5.39,5.65-9.4,6.54ZM1039.79,1348.94c3.19-1.38,6.08-.94,9.34-.26-2.09,1.38-6.39,1.42-9.34.26ZM1099.01,1317.09c.24-2.6-.02-5.31,1.38-7.72.36,2.72.45,5.39-1.38,7.72Z" class="cls-1"></path>
    <path d="M996.24,817c-1-2.52-1.25-5.37-1.67-8.09-.23-1.42-.06-2.91-.18-4.35-.13-1.55-.24-3.12-.63-4.61-1.1-4.08-2.35-8.11-3.51-12.15-.68-2.38-1.41-4.76-1.97-7.17-.91-3.83-1.67-7.7-2.56-11.54-.24-1.04-.81-2.01-1.18-3.03-.4-1.08-.99-2.17-1.1-3.28-.24-2.54-1.08-4.82-2.33-7.02-.95-1.67-1.81-3.4-2.59-5.16-.95-2.18-1.73-4.47-2.7-6.65-.4-.89-1.04-1.73-1.7-2.46-.86-.95-1.67-2.77-2.67-3.56-1.15-.91-1.83-2.2-3.03-3.03-.58-.4-1.28-.73-1.73-1.26-.94-1.1-2.3-1.02-3.35-1.99-2.15-1.97-4.38-2.56-7.28-3.62-2.48-.92-9.35-.76-10.18.13-.83.91-2.39.16-3.28,1.04-4.34,1.21-10.37,2.39-11.96,4.4-1.49,1.88-3.17,3.59-4.24,5.68-2.02,3.95-4.11,7.96-4.95,12.51-.31,1.7-.39,3.88-.42,5.6-.03,2.28.42,4.98,1.04,7.88.1,5.32,2.25,11.03,4.01,16.18,1.13,3.3,1.84,6.73,3.58,9.82.89,1.59,1.31,3.43,2.23,5,1.36,2.28,7.94,11.21,9.51,13.36,1.08,1.47,2.14,3.11,3.58,4.17,2.49,1.84,4.24,4.3,6.2,6.6,1.07,1.26,2.17,2.49,3.24,3.77,1.59,1.89,2.93,4.08,4.79,5.61,3.01,2.9,2.7,3.2,6.63,4.84.6.34.94.71,1.46,1.25.5.52,1.86.78,2.46,1.16,5.06,3.35,7.31,3.92,11.94,7.83,2.77,2.33,8.46,4.45,11.92,5.06,1.65.29,4.74,2.67,5.61,1.23.55-.91.45-1.91.79-3.59.23-3.16.06-3.46-.11-4.72-.5-3.62-.73-7.33-1.75-10.82-1.39-4.76-.08-10.35-1.93-15.01Z" class="cls-1"></path>
    <path d="M504.64,858.29c3.61-.63,9.55-2.85,12.44-5.27,4.82-4.08,7.17-4.68,12.46-8.17.63-.4,2.04-.68,2.56-1.23.53-.55.89-.94,1.52-1.29,4.09-1.72,3.79-2.02,6.92-5.05,1.94-1.62,3.35-3.9,5-5.86,1.12-1.33,2.27-2.6,3.38-3.93,2.04-2.41,3.87-4.95,6.47-6.89,1.5-1.12,2.59-2.82,3.72-4.35,1.65-2.23,8.51-11.55,9.93-13.95.97-1.62,1.41-3.56,2.33-5.21,1.8-3.24,2.54-6.81,3.72-10.24,1.84-5.37,4.09-11.33,4.19-16.89.65-3.03,1.12-5.86,1.08-8.22-.03-1.78-.11-4.06-.44-5.84-.87-4.76-3.06-8.93-5.16-13.06-1.12-2.18-2.86-3.96-4.42-5.92-1.65-2.09-7.94-3.32-12.47-4.6-.94-.92-2.56-.15-3.43-1.08-.86-.94-8.04-1.1-10.61-.15-3.03,1.12-5.37,1.72-7.6,3.79-1.1,1-2.52.92-3.49,2.07-.47.55-1.2.89-1.81,1.31-1.25.87-1.96,2.22-3.16,3.16-1.05.83-1.89,2.72-2.78,3.72-.7.76-1.36,1.63-1.78,2.57-1.02,2.28-1.81,4.66-2.82,6.94-.81,1.84-1.72,3.64-2.7,5.39-1.29,2.3-2.18,4.66-2.43,7.33-.11,1.16-.73,2.3-1.15,3.43-.39,1.07-.99,2.07-1.25,3.16-.94,4-1.73,8.04-2.67,12.04-.6,2.52-1.34,5-2.05,7.49-1.21,4.22-2.52,8.43-3.67,12.68-.42,1.55-.53,3.2-.66,4.81-.13,1.5.05,3.06-.19,4.55-.45,2.85-.7,5.81-1.75,8.45-1.93,4.87-.57,10.71-2.01,15.68-1.05,3.64-1.28,7.51-1.81,11.29-.18,1.33-.36,1.65-.11,4.93.36,1.76.24,2.8.83,3.75.91,1.46,4.14-1.04,5.87-1.33Z" class="cls-1"></path>
  </g>
  <path d="M685.15,1551.95l.77,8.99-4.36,2.02c-20.31-.98-42.25,1.57-62.36.11-1.48-.11-2.92-.26-4.25-.95-1.34-13.11,1.6-9.07,10.5-10.45,13.4-2.08,23.06-14.24,19.6-27.95-2.23-8.82-13.92-11.12-20.5-14.66-9.19-4.94-26.62-17.95-36.47-17.88-20.49.16-34.23,35.11-24.79,51.05,4.76,8.04,13.19,9.3,21.61,11.17v8.88s-2.42.79-2.42.79c-19.38-1.09-40.06,1.31-59.28,0-.98-.07-4.14-.25-4.4-1.37l.75-8.73c5.62-1.56,10.13-2.98,14.5-7.09,12.82-12.05,21.32-49.67,28.63-67.21,9.9-23.72,23.72-44.49,46.82-57.05,20.72-11.27,44.22-7.45,66.99-7.5l.36,10.04c-.79,1.6-4.65,2.15-6.44,3.16-5.52,3.13-7.85,11.23-8.36,17.2-2.51,29.36,1.87,62.08-.03,91.79,1.14,9.32,14.42,16.38,23.14,15.63ZM642.58,1495.74c1.66-1.5,4.65-7.5,4.98-9.79,1.01-7.07.97-30.25.09-37.47-.51-4.23-4.45-9.11-8.11-11.06-17.95-9.53-43.2,8.92-53.06,23.5-2.64,3.9-5.25,9.44-3.06,14.12,1.3,2.79,17.69,7.11,21.98,9.2,9.2,4.46,27.23,20.49,37.18,11.49Z" class="cls-1"></path>
  <path d="M393.22,1414.59l128.27-.67c1.59.53,1.97,2.76,2.15,4.24,1.3,11.21.7,33.05.02,44.74-.1,1.75-.09,3.46-.95,5.04-14.46,1.65-10.46-2.57-11.9-12.25-2.67-17.95-11.89-32.32-32.34-29.1-6.84,1.08-10.47,8.24-12.09,14.28l-.17,94.42c3.09,13.82,17.3,15.52,29.3,15.86,1.12,2.55,1.99,10.17-.68,11.47h-75.21c-2.35-1.14-2.29-9.42-.47-10.86,11.22-1.88,23.52-.53,28.79-12.78,4.49-10.45,1.94-50.25,2.06-64.19.02-1.89.85-3.63.87-5.52.15-14.88,2.62-41.17-18-42.76-21.04-1.63-27.47,23.25-28.55,39.83-3.52,1.49-7.51,1.16-11.09.11v-51.88Z" class="cls-1"></path>
  <path d="M1013.93,1467.95c-14.89,2.24-10.5-4.58-12.09-14.45-2.74-16.94-12.23-28.87-30.65-27-8.85.9-11.99,8.81-13.97,16.39l.07,91.76c2.98,14.47,16.99,15.9,29.44,16.52,1.16,3.7,2.73,11.67-2.65,11.9l-73.69-.78.4-10.88c15.22-.65,28.94-2.78,30.48-20.67-1.76-26.79,3.1-55.6.67-82.13-.95-10.32-4.78-20.46-16.36-21.98-22.05-2.89-28.84,22.63-30.05,39.72-.86,1.4-11.95,2.07-11.13-2.63,1.07-14.45-1.27-30.53,0-44.78.16-1.77.19-3.48,1.63-4.76l126.68-.26c1.88.63,2.02,3.35,2.17,5.02,1.06,11.74.86,32.88,0,44.77-.11,1.48-.26,2.92-.95,4.24Z" class="cls-1"></path>
  <path d="M1105.94,1414.7l-.8,10.95c-17.17-.65-27.51,7.06-28.72,24.42-1.5,21.42-1.6,56.13,0,77.48,1.09,14.58,7.55,21.08,22.04,22.7,2.13.24,7.83-.69,8.84.76l.24,11.11-76.7.52c-2.46-1.19-1.98-8.22-.87-10.46.97-1.22,11.59-2.29,14.46-3.13,12.77-3.76,16-10.35,16.85-23.09,1.41-21.1-.25-44.85-.07-66.31.08-8.89,2.33-16.1-3.3-24.58-5.09-7.67-15.22-8.88-23.55-10.03-1.53-1.2-3.21-12.15,1.63-11.3,21.42,1.27,44.46-1.53,65.68,0,1.48.11,2.93.26,4.25.95Z" class="cls-1"></path>
  <g>
    <g>
      <path d="M550.69,1624.11h11.79c5.73,0,9.72,4,9.72,9.95s-4,10.08-9.72,10.08h-6.25v10.55h-5.55v-30.58h0ZM561.45,1639.3c3.24,0,5.13-2.07,5.13-5.26s-1.89-5.16-5.03-5.16h-5.29v10.42h5.19Z" class="cls-1"></path>
      <path d="M598.29,1646.84h-10.73l-2.59,7.83h-5.73l10.76-30.56h5.81l10.76,30.56h-5.73l-2.56-7.83ZM592.9,1629.4s-.7,3.01-1.29,4.74l-2.72,8.19h8.01l-2.72-8.19c-.57-1.72-1.21-4.74-1.21-4.74h-.06Z" class="cls-1"></path>
      <path d="M618.08,1646.84s3.32,3.24,7.62,3.24c2.33,0,4.43-1.21,4.43-3.71,0-5.47-14.42-4.51-14.42-13.91,0-5.08,4.38-8.87,10.24-8.87s9.13,3.27,9.13,3.27l-2.41,4.51s-2.93-2.67-6.76-2.67c-2.59,0-4.61,1.5-4.61,3.66,0,5.42,14.38,4.09,14.38,13.87,0,4.87-3.71,8.96-10.08,8.96-6.81,0-10.55-4.17-10.55-4.17l3.03-4.17Z" class="cls-1"></path>
      <path d="M654.45,1628.88h-10.03v-4.77h25.61v4.77h-10.03v25.79h-5.55v-25.79Z" class="cls-1"></path>
      <path d="M680.95,1624.11h9.85c3.32,0,4.82.26,6.16.86,3.06,1.38,5,4.3,5,8.35,0,3.66-1.94,7.05-5.16,8.35v.08s.44.44,1.04,1.5l6.28,11.41h-6.2l-6.07-11.41h-5.34v11.41h-5.55v-30.55h-.02ZM691.5,1638.45c2.98,0,4.82-1.76,4.82-4.82s-1.25-4.74-5.6-4.74h-4.22v9.56h5Z" class="cls-1"></path>
      <path d="M722.02,1641.89l-10.16-17.78h6.29l4.77,9c.99,1.89,1.81,4.13,1.84,4.09h.08s.86-2.2,1.84-4.09l4.74-9h6.28l-10.16,17.78v12.78h-5.55v-12.78h.02Z" class="cls-1"></path>
      <path d="M766.59,1646.84s3.32,3.24,7.62,3.24c2.33,0,4.43-1.21,4.43-3.71,0-5.47-14.42-4.51-14.42-13.91,0-5.08,4.38-8.87,10.24-8.87s9.13,3.27,9.13,3.27l-2.41,4.51s-2.93-2.67-6.76-2.67c-2.59,0-4.61,1.5-4.61,3.66,0,5.42,14.38,4.09,14.38,13.87,0,4.87-3.71,8.96-10.08,8.96-6.81,0-10.55-4.17-10.55-4.17l3.03-4.17Z" class="cls-1"></path>
      <path d="M802.96,1628.88h-10.03v-4.77h25.61v4.77h-10.03v25.79h-5.55v-25.79Z" class="cls-1"></path>
      <path d="M829.03,1624.11h5.55v19.59c0,4.09,2.67,6.42,6.76,6.42s6.8-2.33,6.8-6.46v-19.54h5.55v19.59c0,6.84-4.95,11.5-12.31,11.5s-12.36-4.64-12.36-11.5v-19.61h.02Z" class="cls-1"></path>
      <path d="M867.89,1624.11h10.42c9.43,0,15.58,5.6,15.58,15.24s-6.16,15.32-15.58,15.32h-10.42v-30.56ZM878,1649.9c6.2,0,10.16-3.66,10.16-10.55s-4.04-10.47-10.16-10.47h-4.56v21.02h4.56Z" class="cls-1"></path>
      <path d="M906.58,1624.11h5.55v30.56h-5.55v-30.56Z" class="cls-1"></path>
      <path d="M940.46,1623.59c9,0,15.81,6.84,15.81,15.58s-6.8,16.02-15.81,16.02-15.81-7.02-15.81-16.02,6.81-15.58,15.81-15.58ZM940.46,1650.11c5.6,0,10.08-4.64,10.08-10.94s-4.48-10.5-10.08-10.5-10.08,4.48-10.08,10.5,4.48,10.94,10.08,10.94Z" class="cls-1"></path>
    </g>
    <path d="M488.43,1634.63c7.12-4.82,10.5,1.18,11.92,2.96,1.42,1.78,1.42,4.72-.95,8.87-2.38,4.14-10.5,7.1-15.74,1.78-5.24-5.32-.47-10.06,4.77-13.61Z" class="cls-1"></path>
    <path d="M1004.04,1648.1c-7.7-3.82-4.14-9.71-3.32-11.83.84-2.12,3.41-3.58,8.19-3.54,4.77.03,11.36,5.63,9.32,12.81-2.04,7.18-8.51,5.37-14.19,2.56Z" class="cls-1"></path>
  </g>
  <g>
    <path d="M859.78,1551.32c-6.63-1.98-15.25-7.55-16.16-15,2.09-29.79-2.74-63.24.03-92.59.46-4.85,3.34-13.64,7.7-16.26,1.93-1.16,6.2-1.48,7.1-3.3.32-1.62.92-6.24.21-8.72-5.61,3.16-11.47,5.9-17.68,7.59-9.03,2.47-17.05,1.36-25.79-1.33-5-1.53-10.17-2.64-15.35-3.34-.14-.02-.1-.02-.18-.03-.07,0-.1,0-.39-.03-.2-.02-1.13.05-1.68.18-2.64.63-3.98,1.8-6.49,3.13-41,21.85-47.53,64.11-63.09,103.07-3.94,9.87-9.98,22.49-20.6,26.54-3,1.14-6.16-.29-7.42,3.77-1.08,3.49-1.02,7.64,3.29,7.97l62.8-.29.4-9.28c-8.57-1.89-16.76-2.97-21.61-11.17-9.56-16.16,4.27-51.44,25.51-51.05,9.24.17,26.95,13.11,35.74,17.88,11.85,6.43,23.33,6.65,20.51,24.65-1.49,9.54-10.37,16.53-19.6,17.96-8.89,1.38-11.83-2.66-10.5,10.45,1.33.69,2.77.84,4.25.95,16.41,1.19,44.56,1.34,60.87,0,1.65-.14,5.29-.45,5.86-2.13,1.02-10.38-1.09-7.62-7.74-9.61ZM829.17,1485.95c-.33,2.29-3.33,8.29-4.98,9.79-.92.83-4.39,2.52-5.71,2.69-10.26,1.32-25.58-11.75-35.34-15.9-9.53-4.06-22.88-2.84-17.69-17.05,4.95-13.53,29.72-30.61,44.23-30.96,8.8-.21,18.48,5.46,19.56,14.79.85,7.33.96,29.51-.07,36.65Z" class="cls-1"></path>
    <path d="M838.76,1411.4s.02-.02,0-.02c-.17.07-.25.1,0,.02Z" class="cls-1"></path>
    <path d="M837.08,1411.75c.07.04.23.07.61.09-.21,0-.41-.07-.61-.09Z" class="cls-1"></path>
    <path d="M799.66,1418.36c.31.02-.72-.1,0,0h0Z" class="cls-1"></path>
  </g>
  <path d="M809.58,1386.52c13.12-1.59,20.16,10.23,33.2,6.55,1.44-.41,7.09-3.44,7.91-3.22.39.1,3.27,2.54,3.45,2.96.96,2.26-1.03,3.93-2.62,5.25-5.75,4.75-14.21,8.68-21.79,8.28-11.53-.61-17.33-11.89-30.83-4.97-1.95,1-3.7,3.38-6.24,3-1.29-.19-3.78-3.36-3.65-4.61.11-1.06,6.84-6.74,8.14-7.65,2.9-2.03,8.98-5.17,12.43-5.59Z" class="cls-1"></path>
</svg>